<svg xmlns="http://www.w3.org/2000/svg" viewBox="0 0 594.6 357.51"><defs><style>.cls-1{fill:#e0e0e0;}.cls-2{fill:#ebebeb;}.cls-3{fill:#f0f0f0;}.cls-10,.cls-24,.cls-4,.cls-8{fill:#0287a6;}.cls-5{fill:#e6e6e6;}.cls-11,.cls-6{fill:#f5f5f5;}.cls-20,.cls-7{fill:none;}.cls-7{stroke:#263238;stroke-linecap:round;stroke-linejoin:round;stroke-width:0.61px;}.cls-23,.cls-8{opacity:0.6;}.cls-9{fill:#87d7ea;}.cls-10,.cls-19,.cls-22{opacity:0.3;}.cls-10,.cls-11,.cls-12,.cls-13,.cls-14,.cls-16,.cls-19,.cls-23,.cls-24{isolation:isolate;}.cls-11,.cls-12,.cls-13,.cls-17,.cls-18,.cls-24{opacity:0.2;}.cls-13,.cls-14,.cls-16,.cls-19,.cls-21{fill:#fff;}.cls-14,.cls-25{opacity:0.4;}.cls-15{fill:#263238;}.cls-16{opacity:0.5;}.cls-20{stroke:#fff;stroke-miterlimit:10;stroke-width:1.63px;}</style></defs><title>9774777</title><g id="Background_complete" data-name="Background complete"><path class="cls-1" d="M597.14,315.49H453.84a4.8,4.8,0,0,1-4.64-4.94V88.64a4.8,4.8,0,0,1,4.64-4.94h143.3a4.81,4.81,0,0,1,4.65,4.94V310.55A4.81,4.81,0,0,1,597.14,315.49ZM453.84,83.91a4.61,4.61,0,0,0-4.45,4.73V310.55a4.6,4.6,0,0,0,4.45,4.73h143.3a4.6,4.6,0,0,0,4.45-4.73V88.64a4.61,4.61,0,0,0-4.45-4.73Z" transform="translate(-63 -75.12)"/><path class="cls-1" d="M431.9,315.49H288.6a4.81,4.81,0,0,1-4.65-4.94V88.64a4.81,4.81,0,0,1,4.65-4.94H431.9a4.81,4.81,0,0,1,4.65,4.94V310.55A4.81,4.81,0,0,1,431.9,315.49ZM288.6,83.91a4.61,4.61,0,0,0-4.45,4.73V310.55a4.6,4.6,0,0,0,4.45,4.73H431.9a4.6,4.6,0,0,0,4.45-4.73V88.64a4.61,4.61,0,0,0-4.45-4.73Z" transform="translate(-63 -75.12)"/><path class="cls-1" d="M266.76,315.49H123.46a4.8,4.8,0,0,1-4.64-4.94V88.64a4.8,4.8,0,0,1,4.64-4.94h143.3a4.81,4.81,0,0,1,4.65,4.94V310.55A4.81,4.81,0,0,1,266.76,315.49ZM123.46,83.91A4.61,4.61,0,0,0,119,88.64V310.55a4.6,4.6,0,0,0,4.45,4.73h143.3a4.6,4.6,0,0,0,4.45-4.73V88.64a4.61,4.61,0,0,0-4.45-4.73Z" transform="translate(-63 -75.12)"/><rect class="cls-1" y="291.84" width="594.6" height="0.1"/><rect class="cls-2" x="518.2" y="316.6" width="44.18" height="0.35"/><rect class="cls-2" x="392.47" y="320.45" width="11.6" height="0.35"/><rect class="cls-2" x="32.22" y="305.82" width="57.62" height="0.35"/><rect class="cls-2" x="101.72" y="305.82" width="8.45" height="0.35"/><rect class="cls-2" x="137.62" y="311.8" width="124.96" height="0.35"/><g id="freepik--background-complete--inject-481"><polygon class="cls-3" points="457.48 190.66 457.48 147.29 432.22 147.29 432.22 157.18 415.39 157.18 415.39 48.85 383.02 48.85 383.02 91.49 373.31 91.49 373.31 70.2 348.05 70.2 348.05 174.03 312.44 174.03 312.44 137.35 290.11 137.35 290.11 57.81 262.55 57.81 262.55 110.83 236.65 110.83 236.65 225.07 216.58 225.07 216.58 169.44 195.86 169.44 195.86 133.65 173.85 133.65 173.85 106.17 149.29 119.94 149.29 193.47 123.39 193.47 123.39 178.3 88.79 178.3 88.79 314.85 491.51 315.06 491.51 190.66 457.48 190.66"/><rect class="cls-4" x="268.85" y="67.2" width="8.06" height="9.82"/><rect class="cls-4" x="268.85" y="83.67" width="8.06" height="9.82"/><rect class="cls-4" x="268.85" y="100.15" width="8.06" height="9.82"/><rect class="cls-4" x="268.85" y="116.62" width="8.06" height="9.82"/><rect class="cls-4" x="268.85" y="133.1" width="8.06" height="9.82"/><rect class="cls-4" x="268.85" y="149.58" width="8.06" height="9.82"/><rect class="cls-4" x="268.85" y="166.05" width="8.06" height="9.82"/><rect class="cls-4" x="268.85" y="182.53" width="8.06" height="9.82"/><rect class="cls-4" x="389.99" y="54.04" width="8.06" height="9.82"/><rect class="cls-4" x="389.99" y="70.52" width="8.06" height="9.82"/><rect class="cls-4" x="389.99" y="87" width="8.06" height="9.82"/><rect class="cls-4" x="389.99" y="103.47" width="8.06" height="9.82"/><rect class="cls-4" x="389.99" y="119.95" width="8.06" height="9.82"/><rect class="cls-4" x="389.99" y="136.42" width="8.06" height="9.82"/><rect class="cls-4" x="389.99" y="152.91" width="8.06" height="9.82"/><rect class="cls-4" x="389.99" y="169.38" width="8.06" height="9.82"/><path class="cls-1" d="M304.3,390.18v-158H272.21v158Z" transform="translate(-63 -75.12)"/><rect class="cls-4" x="211.65" y="162.08" width="3.89" height="8.53"/><rect class="cls-4" x="219.43" y="162.08" width="3.89" height="8.53"/><rect class="cls-4" x="227.2" y="162.08" width="3.89" height="8.53"/><rect class="cls-4" x="234.98" y="162.08" width="3.89" height="8.53"/><rect class="cls-4" x="211.65" y="176.38" width="3.89" height="8.53"/><rect class="cls-4" x="219.43" y="176.38" width="3.89" height="8.53"/><rect class="cls-4" x="227.2" y="176.38" width="3.89" height="8.53"/><rect class="cls-4" x="234.98" y="176.38" width="3.89" height="8.53"/><rect class="cls-4" x="211.65" y="190.68" width="3.89" height="8.53"/><rect class="cls-4" x="219.43" y="190.68" width="3.89" height="8.53"/><rect class="cls-4" x="227.2" y="190.68" width="3.89" height="8.53"/><rect class="cls-4" x="234.98" y="190.68" width="3.89" height="8.53"/><rect class="cls-4" x="211.65" y="204.97" width="3.89" height="8.53"/><rect class="cls-4" x="219.43" y="204.97" width="3.89" height="8.53"/><rect class="cls-4" x="227.2" y="204.97" width="3.89" height="8.53"/><rect class="cls-4" x="234.98" y="204.97" width="3.89" height="8.53"/><rect class="cls-4" x="211.65" y="219.27" width="3.89" height="8.53"/><rect class="cls-4" x="219.43" y="219.27" width="3.89" height="8.53"/><rect class="cls-4" x="227.2" y="219.27" width="3.89" height="8.53"/><rect class="cls-4" x="234.98" y="219.27" width="3.89" height="8.53"/><rect class="cls-4" x="211.65" y="233.57" width="3.89" height="8.53"/><rect class="cls-4" x="219.43" y="233.57" width="3.89" height="8.53"/><rect class="cls-4" x="227.2" y="233.57" width="3.89" height="8.53"/><rect class="cls-4" x="234.98" y="233.57" width="3.89" height="8.53"/><rect class="cls-4" x="211.65" y="247.86" width="3.89" height="8.53"/><rect class="cls-4" x="219.43" y="247.86" width="3.89" height="8.53"/><rect class="cls-4" x="227.2" y="247.86" width="3.89" height="8.53"/><rect class="cls-4" x="234.98" y="247.86" width="3.89" height="8.53"/><rect class="cls-4" x="211.65" y="262.17" width="3.89" height="8.53"/><rect class="cls-4" x="219.43" y="262.17" width="3.89" height="8.53"/><rect class="cls-4" x="227.2" y="262.17" width="3.89" height="8.53"/><rect class="cls-4" x="234.98" y="262.17" width="3.89" height="8.53"/><path class="cls-5" d="M415.78,390.13V213.84H349.26V390.18S415.27,390.2,415.78,390.13Z" transform="translate(-63 -75.12)"/><rect class="cls-1" x="291.25" y="144.55" width="8.06" height="9.82"/><rect class="cls-1" x="307.39" y="144.55" width="8.06" height="9.82"/><rect class="cls-1" x="323.52" y="144.55" width="8.06" height="9.82"/><rect class="cls-1" x="339.66" y="144.55" width="8.06" height="9.82"/><rect class="cls-1" x="291.25" y="161.03" width="8.06" height="9.82"/><rect class="cls-1" x="307.39" y="161.03" width="8.06" height="9.82"/><rect class="cls-1" x="323.52" y="161.03" width="8.06" height="9.82"/><rect class="cls-1" x="339.66" y="161.03" width="8.06" height="9.82"/><rect class="cls-1" x="291.25" y="177.5" width="8.06" height="9.82"/><rect class="cls-1" x="307.39" y="177.5" width="8.06" height="9.82"/><rect class="cls-1" x="323.52" y="177.5" width="8.06" height="9.82"/><rect class="cls-1" x="339.66" y="177.5" width="8.06" height="9.82"/><rect class="cls-1" x="291.25" y="193.97" width="8.06" height="9.82"/><rect class="cls-1" x="307.39" y="193.97" width="8.06" height="9.82"/><rect class="cls-1" x="323.52" y="193.97" width="8.06" height="9.82"/><rect class="cls-1" x="339.66" y="193.97" width="8.06" height="9.82"/><rect class="cls-1" x="291.25" y="210.46" width="8.06" height="9.82"/><rect class="cls-1" x="307.39" y="210.46" width="8.06" height="9.82"/><rect class="cls-1" x="323.52" y="210.46" width="8.06" height="9.82"/><rect class="cls-1" x="339.66" y="210.46" width="8.06" height="9.82"/><rect class="cls-1" x="291.25" y="226.93" width="8.06" height="9.82"/><rect class="cls-1" x="307.39" y="226.93" width="8.06" height="9.82"/><rect class="cls-1" x="323.52" y="226.93" width="8.06" height="9.82"/><rect class="cls-1" x="339.66" y="226.93" width="8.06" height="9.82"/><rect class="cls-1" x="291.25" y="243.41" width="8.06" height="9.82"/><rect class="cls-1" x="307.39" y="243.41" width="8.06" height="9.82"/><rect class="cls-1" x="323.52" y="243.41" width="8.06" height="9.82"/><rect class="cls-1" x="339.66" y="243.41" width="8.06" height="9.82"/><rect class="cls-1" x="291.25" y="259.88" width="8.06" height="9.82"/><rect class="cls-1" x="307.39" y="259.88" width="8.06" height="9.82"/><rect class="cls-1" x="323.52" y="259.88" width="8.06" height="9.82"/><rect class="cls-1" x="339.66" y="259.88" width="8.06" height="9.82"/><path class="cls-5" d="M260.55,390V201.49H233V390.18C241.74,390,260.55,390,260.55,390Z" transform="translate(-63 -75.12)"/><rect class="cls-4" x="174.1" y="129.86" width="8.06" height="9.82"/><rect class="cls-4" x="174.1" y="146.34" width="8.06" height="9.82"/><rect class="cls-4" x="174.1" y="162.82" width="8.06" height="9.82"/><rect class="cls-4" x="174.1" y="179.29" width="8.06" height="9.82"/><rect class="cls-4" x="174.1" y="195.76" width="8.06" height="9.82"/><rect class="cls-4" x="174.1" y="212.24" width="8.06" height="9.82"/><rect class="cls-4" x="174.1" y="228.72" width="8.06" height="9.82"/><rect class="cls-4" x="174.1" y="245.2" width="8.06" height="9.82"/><rect class="cls-4" x="184.89" y="129.86" width="8.06" height="9.82"/><rect class="cls-4" x="184.89" y="146.34" width="8.06" height="9.82"/><rect class="cls-4" x="184.89" y="162.82" width="8.06" height="9.82"/><rect class="cls-4" x="184.89" y="179.29" width="8.06" height="9.82"/><rect class="cls-4" x="184.89" y="195.76" width="8.06" height="9.82"/><rect class="cls-4" x="184.89" y="212.24" width="8.06" height="9.82"/><rect class="cls-4" x="184.89" y="228.72" width="8.06" height="9.82"/><rect class="cls-4" x="184.89" y="245.2" width="8.06" height="9.82"/><rect class="cls-5" x="412.55" y="129.73" width="48.57" height="185.33"/><rect class="cls-4" x="419.73" y="137.39" width="14.23" height="9.82"/><rect class="cls-4" x="419.73" y="153.88" width="14.23" height="9.82"/><rect class="cls-4" x="419.73" y="170.35" width="14.23" height="9.82"/><rect class="cls-4" x="419.73" y="186.83" width="14.23" height="9.82"/><rect class="cls-4" x="419.73" y="203.3" width="14.23" height="9.82"/><rect class="cls-4" x="419.73" y="219.77" width="14.23" height="9.82"/><rect class="cls-4" x="419.73" y="236.26" width="14.23" height="9.82"/><rect class="cls-4" x="419.73" y="252.73" width="14.23" height="9.82"/><rect class="cls-4" x="438.78" y="137.39" width="14.23" height="9.82"/><rect class="cls-4" x="438.78" y="153.88" width="14.23" height="9.82"/><rect class="cls-4" x="438.78" y="170.35" width="14.23" height="9.82"/><rect class="cls-4" x="438.78" y="186.83" width="14.23" height="9.82"/><rect class="cls-4" x="438.78" y="203.3" width="14.23" height="9.82"/><rect class="cls-4" x="438.78" y="219.77" width="14.23" height="9.82"/><rect class="cls-4" x="438.78" y="236.26" width="14.23" height="9.82"/><rect class="cls-4" x="438.78" y="252.73" width="14.23" height="9.82"/><rect class="cls-5" x="502" y="67.06" width="64.99" height="248"/><rect class="cls-4" x="512.06" y="77.31" width="13.07" height="9.02"/><rect class="cls-4" x="512.06" y="92.45" width="13.07" height="9.02"/><rect class="cls-4" x="512.06" y="107.57" width="13.07" height="9.02"/><rect class="cls-4" x="512.06" y="122.71" width="13.07" height="9.02"/><rect class="cls-4" x="512.06" y="137.84" width="13.07" height="9.02"/><rect class="cls-4" x="512.06" y="152.97" width="13.07" height="9.02"/><rect class="cls-4" x="512.06" y="168.11" width="13.07" height="9.02"/><rect class="cls-4" x="512.06" y="183.24" width="13.07" height="9.02"/><rect class="cls-4" x="529.56" y="77.31" width="13.07" height="9.02"/><rect class="cls-4" x="529.56" y="92.45" width="13.07" height="9.02"/><rect class="cls-4" x="529.56" y="107.57" width="13.07" height="9.02"/><rect class="cls-4" x="529.56" y="122.71" width="13.07" height="9.02"/><rect class="cls-4" x="529.56" y="137.84" width="13.07" height="9.02"/><rect class="cls-4" x="529.56" y="152.97" width="13.07" height="9.02"/><rect class="cls-4" x="529.56" y="168.11" width="13.07" height="9.02"/><rect class="cls-4" x="529.56" y="183.24" width="13.07" height="9.02"/><rect class="cls-4" x="546.32" y="77.31" width="13.07" height="9.02"/><rect class="cls-4" x="546.32" y="92.45" width="13.07" height="9.02"/><rect class="cls-4" x="546.32" y="107.57" width="13.07" height="9.02"/><rect class="cls-4" x="546.32" y="122.71" width="13.07" height="9.02"/><rect class="cls-4" x="546.32" y="137.84" width="13.07" height="9.02"/><rect class="cls-4" x="546.32" y="152.97" width="13.07" height="9.02"/><rect class="cls-4" x="546.32" y="168.11" width="13.07" height="9.02"/><rect class="cls-4" x="546.32" y="183.24" width="13.07" height="9.02"/><rect class="cls-4" x="512.06" y="196.04" width="13.07" height="9.02"/><rect class="cls-4" x="512.06" y="211.18" width="13.07" height="9.02"/><rect class="cls-4" x="512.06" y="226.3" width="13.07" height="9.02"/><rect class="cls-4" x="512.06" y="241.44" width="13.07" height="9.02"/><rect class="cls-4" x="512.06" y="256.57" width="13.07" height="9.02"/><rect class="cls-4" x="512.06" y="271.7" width="13.07" height="9.02"/><rect class="cls-4" x="512.06" y="286.84" width="13.07" height="9.02"/><rect class="cls-4" x="512.06" y="301.97" width="13.07" height="9.02"/><rect class="cls-4" x="529.56" y="196.04" width="13.07" height="9.02"/><rect class="cls-4" x="529.56" y="211.18" width="13.07" height="9.02"/><rect class="cls-4" x="529.56" y="226.3" width="13.07" height="9.02"/><rect class="cls-4" x="529.56" y="241.44" width="13.07" height="9.02"/><rect class="cls-4" x="529.56" y="256.57" width="13.07" height="9.02"/><rect class="cls-4" x="529.56" y="271.7" width="13.07" height="9.02"/><rect class="cls-4" x="529.56" y="286.84" width="13.07" height="9.02"/><rect class="cls-4" x="529.56" y="301.97" width="13.07" height="9.02"/><rect class="cls-4" x="546.32" y="196.04" width="13.07" height="9.02"/><rect class="cls-4" x="546.32" y="211.18" width="13.07" height="9.02"/><rect class="cls-4" x="546.32" y="226.3" width="13.07" height="9.02"/><rect class="cls-4" x="546.32" y="241.44" width="13.07" height="9.02"/><rect class="cls-4" x="546.32" y="256.57" width="13.07" height="9.02"/><rect class="cls-4" x="546.32" y="271.7" width="13.07" height="9.02"/><rect class="cls-4" x="546.32" y="286.84" width="13.07" height="9.02"/><rect class="cls-4" x="546.32" y="301.97" width="13.07" height="9.02"/><rect class="cls-5" x="27.61" y="117.33" width="51.82" height="197.73"/><rect class="cls-4" x="35.27" y="125.5" width="15.19" height="10.48"/><rect class="cls-4" x="35.27" y="143.09" width="15.19" height="10.48"/><rect class="cls-4" x="35.27" y="160.66" width="15.19" height="10.48"/><rect class="cls-4" x="35.27" y="178.25" width="15.19" height="10.48"/><rect class="cls-4" x="35.27" y="195.82" width="15.19" height="10.48"/><rect class="cls-4" x="35.27" y="213.4" width="15.19" height="10.48"/><rect class="cls-4" x="35.27" y="230.98" width="15.19" height="10.48"/><rect class="cls-4" x="35.27" y="248.56" width="15.19" height="10.48"/><rect class="cls-4" x="55.59" y="125.5" width="15.19" height="10.48"/><rect class="cls-4" x="55.59" y="143.09" width="15.19" height="10.48"/><rect class="cls-4" x="55.59" y="160.66" width="15.19" height="10.48"/><rect class="cls-4" x="55.59" y="178.25" width="15.19" height="10.48"/><rect class="cls-4" x="55.59" y="195.82" width="15.19" height="10.48"/><rect class="cls-4" x="55.59" y="213.4" width="15.19" height="10.48"/><rect class="cls-4" x="55.59" y="230.98" width="15.19" height="10.48"/><rect class="cls-4" x="55.59" y="248.56" width="15.19" height="10.48"/><path class="cls-1" d="M443.78,390.18V252.66H422.59V390.17Z" transform="translate(-63 -75.12)"/><rect class="cls-4" x="361.2" y="181.89" width="2.57" height="7.32"/><rect class="cls-4" x="366.34" y="181.89" width="2.57" height="7.32"/><rect class="cls-4" x="371.46" y="181.89" width="2.57" height="7.32"/><rect class="cls-4" x="376.6" y="181.89" width="2.57" height="7.32"/><rect class="cls-4" x="361.2" y="194.18" width="2.57" height="7.32"/><rect class="cls-4" x="366.34" y="194.18" width="2.57" height="7.32"/><rect class="cls-4" x="371.46" y="194.18" width="2.57" height="7.32"/><rect class="cls-4" x="376.6" y="194.18" width="2.57" height="7.32"/><rect class="cls-4" x="361.2" y="206.46" width="2.57" height="7.32"/><rect class="cls-4" x="366.34" y="206.46" width="2.57" height="7.32"/><rect class="cls-4" x="371.46" y="206.46" width="2.57" height="7.32"/><rect class="cls-4" x="376.6" y="206.46" width="2.57" height="7.32"/><rect class="cls-4" x="361.2" y="218.74" width="2.57" height="7.32"/><rect class="cls-4" x="366.34" y="218.74" width="2.57" height="7.32"/><rect class="cls-4" x="371.46" y="218.74" width="2.57" height="7.32"/><rect class="cls-4" x="376.6" y="218.74" width="2.57" height="7.32"/><rect class="cls-4" x="361.2" y="231.04" width="2.57" height="7.32"/><rect class="cls-4" x="366.34" y="231.04" width="2.57" height="7.32"/><rect class="cls-4" x="371.46" y="231.04" width="2.57" height="7.32"/><rect class="cls-4" x="376.6" y="231.04" width="2.57" height="7.32"/><rect class="cls-4" x="361.2" y="243.32" width="2.57" height="7.32"/><rect class="cls-4" x="366.34" y="243.32" width="2.57" height="7.32"/><rect class="cls-4" x="371.46" y="243.32" width="2.57" height="7.32"/><rect class="cls-4" x="376.6" y="243.32" width="2.57" height="7.32"/><rect class="cls-4" x="361.2" y="255.6" width="2.57" height="7.32"/><rect class="cls-4" x="366.34" y="255.6" width="2.57" height="7.32"/><rect class="cls-4" x="371.46" y="255.6" width="2.57" height="7.32"/><rect class="cls-4" x="376.6" y="255.6" width="2.57" height="7.32"/><rect class="cls-4" x="361.2" y="267.89" width="2.57" height="7.32"/><rect class="cls-4" x="366.34" y="267.89" width="2.57" height="7.32"/><rect class="cls-4" x="371.46" y="267.89" width="2.57" height="7.32"/><rect class="cls-4" x="376.6" y="267.89" width="2.57" height="7.32"/><path class="cls-4" d="M235.49,390.18V273H178.85V390Z" transform="translate(-63 -75.12)"/><rect class="cls-1" x="120.14" y="201.52" width="6.87" height="6.15"/><rect class="cls-1" x="133.88" y="201.52" width="6.87" height="6.15"/><rect class="cls-1" x="147.6" y="201.52" width="6.87" height="6.15"/><rect class="cls-1" x="161.33" y="201.52" width="6.87" height="6.15"/><rect class="cls-1" x="120.14" y="211.82" width="6.87" height="6.15"/><rect class="cls-1" x="133.88" y="211.82" width="6.87" height="6.15"/><rect class="cls-1" x="147.6" y="211.82" width="6.87" height="6.15"/><rect class="cls-1" x="161.33" y="211.82" width="6.87" height="6.15"/><rect class="cls-1" x="120.14" y="222.12" width="6.87" height="6.15"/><rect class="cls-1" x="133.88" y="222.12" width="6.87" height="6.15"/><rect class="cls-1" x="147.6" y="222.12" width="6.87" height="6.15"/><rect class="cls-1" x="161.33" y="222.12" width="6.87" height="6.15"/><rect class="cls-1" x="120.14" y="232.43" width="6.87" height="6.15"/><rect class="cls-1" x="133.88" y="232.43" width="6.87" height="6.15"/><rect class="cls-1" x="147.6" y="232.43" width="6.87" height="6.15"/><rect class="cls-1" x="161.33" y="232.43" width="6.87" height="6.15"/><rect class="cls-1" x="120.14" y="242.72" width="6.87" height="6.15"/><rect class="cls-1" x="133.88" y="242.72" width="6.87" height="6.15"/><rect class="cls-1" x="147.6" y="242.72" width="6.87" height="6.15"/><rect class="cls-1" x="161.33" y="242.72" width="6.87" height="6.15"/><rect class="cls-1" x="120.14" y="253.02" width="6.87" height="6.15"/><rect class="cls-1" x="133.88" y="253.02" width="6.87" height="6.15"/><rect class="cls-1" x="147.6" y="253.02" width="6.87" height="6.15"/><rect class="cls-1" x="161.33" y="253.02" width="6.87" height="6.15"/><rect class="cls-1" x="120.14" y="263.32" width="6.87" height="6.15"/><rect class="cls-1" x="133.88" y="263.32" width="6.87" height="6.15"/><rect class="cls-1" x="147.6" y="263.32" width="6.87" height="6.15"/><rect class="cls-1" x="161.33" y="263.32" width="6.87" height="6.15"/></g><path class="cls-2" d="M424.39,125.8a6.34,6.34,0,0,0-7.2-.45c-2.91-6.27-11.05-9-16.85-5.73-1.51-6.76-7.77-12-14.3-11.87s-12.67,5.44-14,12.23a6.16,6.16,0,0,1-1.09,3c-1.18,1.28-3.15.85-4.83.71-5.29-.44-10.61,3.51-12,8.94l72.84-.28A6.36,6.36,0,0,0,424.39,125.8Z" transform="translate(-63 -75.12)"/><path class="cls-2" d="M553.06,175a3.5,3.5,0,0,0-4-.25,6.86,6.86,0,0,0-9.29-3.16,7.91,7.91,0,0,0-15.62.2,3.44,3.44,0,0,1-.6,1.69c-.65.7-1.73.47-2.66.39a6.61,6.61,0,0,0-6.64,4.93l40.16-.16A3.52,3.52,0,0,0,553.06,175Z" transform="translate(-63 -75.12)"/><path class="cls-2" d="M279.2,166.78a3.49,3.49,0,0,0-4-.25,6.87,6.87,0,0,0-9.29-3.16,7.92,7.92,0,0,0-15.63.2,3.36,3.36,0,0,1-.6,1.68c-.65.71-1.73.47-2.66.4a6.6,6.6,0,0,0-6.64,4.93l40.16-.16A3.51,3.51,0,0,0,279.2,166.78Z" transform="translate(-63 -75.12)"/><path class="cls-2" d="M597.83,99.77a8.64,8.64,0,0,0-9.83-.61c-4-8.56-15.09-12.34-23-7.83C562.92,82.1,554.37,75,545.45,75.12s-17.31,7.43-19.16,16.7c-.3,1.48-.5,3.09-1.49,4.17-1.61,1.75-4.3,1.16-6.6,1-7.22-.6-14.49,4.79-16.45,12.21l99.49-.39C602.11,105.2,600.61,102,597.83,99.77Z" transform="translate(-63 -75.12)"/><path class="cls-2" d="M248.51,116.34a9.75,9.75,0,0,0-11.07-.69c-4.49-9.64-17-13.9-25.93-8.82-2.33-10.39-12-18.38-22-18.26s-19.5,8.37-21.6,18.82c-.33,1.66-.55,3.48-1.67,4.69-1.81,2-4.84,1.31-7.43,1.1-8.14-.68-16.33,5.4-18.54,13.75l112.09-.43C253.33,122.46,251.64,118.86,248.51,116.34Z" transform="translate(-63 -75.12)"/><path class="cls-2" d="M139.35,167.31a4.21,4.21,0,0,0-4.8-.3c-2-4.19-7.38-6-11.26-3.83a10.15,10.15,0,0,0-9.55-7.93c-4.36.06-8.46,3.63-9.37,8.17a4,4,0,0,1-.73,2c-.78.85-2.1.57-3.22.47a8,8,0,0,0-8,6l48.65-.19A4.23,4.23,0,0,0,139.35,167.31Z" transform="translate(-63 -75.12)"/><path class="cls-2" d="M195.2,218.27a2.93,2.93,0,0,0-3.34-.21,5.76,5.76,0,0,0-7.81-2.66,6.66,6.66,0,0,0-13.15.17,2.78,2.78,0,0,1-.5,1.41c-.55.6-1.46.4-2.24.33a5.57,5.57,0,0,0-5.59,4.15l33.79-.13A3,3,0,0,0,195.2,218.27Z" transform="translate(-63 -75.12)"/></g><g id="Shadow"><path class="cls-6" d="M625.13,402.51c0,16.64-119.95,30.13-267.93,30.13S89.27,419.15,89.27,402.51s120-30.13,267.93-30.13S625.13,385.87,625.13,402.51Z" transform="translate(-63 -75.12)"/></g><g id="Birds"><path class="cls-7" d="M464.74,159.45l6.25,9a55.87,55.87,0,0,1,3.63-9.72" transform="translate(-63 -75.12)"/><path class="cls-7" d="M473.92,185l4.42,6.36a39.41,39.41,0,0,1,2.58-6.87" transform="translate(-63 -75.12)"/><path class="cls-7" d="M485.36,171.65c3.16,0,7.45,2.76,9.35,5.08.89-2.52,2.94-6,6-7.49" transform="translate(-63 -75.12)"/></g><g id="Sun"><g id="freepik--Sun--inject-5"><path class="cls-4" d="M224.78,163.58c0,2.08-2.83,3.74-3.31,5.65s1.16,4.92.21,6.65-4.18,1.7-5.53,3.13-1.28,4.86-2.93,5.88-4.4-.76-6.26-.23-3.36,3.52-5.32,3.52-3.51-3-5.31-3.52-4.62,1.23-6.26.23-1.59-4.46-2.93-5.88-4.58-1.36-5.54-3.13.72-4.69.22-6.66-3.31-3.57-3.31-5.65,2.83-3.73,3.31-5.65-1.16-4.92-.22-6.65,4.19-1.7,5.54-3.13,1.28-4.86,2.93-5.88,4.39.77,6.26.23,3.36-3.51,5.31-3.51,3.52,3,5.32,3.51,4.62-1.23,6.26-.23,1.59,4.45,2.93,5.88,4.57,1.37,5.53,3.13-.71,4.67-.21,6.65S224.78,161.51,224.78,163.58Z" transform="translate(-63 -75.12)"/><path class="cls-8" d="M224.78,163.58c0,2.08-2.83,3.74-3.31,5.65s1.16,4.92.21,6.65-4.18,1.7-5.53,3.13-1.28,4.86-2.93,5.88-4.4-.76-6.26-.23-3.36,3.52-5.32,3.52-3.51-3-5.31-3.52-4.62,1.23-6.26.23-1.59-4.46-2.93-5.88-4.58-1.36-5.54-3.13.72-4.69.22-6.66-3.31-3.57-3.31-5.65,2.83-3.73,3.31-5.65-1.16-4.92-.22-6.65,4.19-1.7,5.54-3.13,1.28-4.86,2.93-5.88,4.39.77,6.26.23,3.36-3.51,5.31-3.51,3.52,3,5.32,3.51,4.62-1.23,6.26-.23,1.59,4.45,2.93,5.88,4.57,1.37,5.53,3.13-.71,4.67-.21,6.65S224.78,161.51,224.78,163.58Z" transform="translate(-63 -75.12)"/><ellipse class="cls-9" cx="138.64" cy="88.46" rx="16.53" ry="17.58"/><ellipse class="cls-10" cx="138.64" cy="88.46" rx="16.53" ry="17.58"/></g></g><g id="City_Hall" data-name="City Hall"><rect class="cls-9" x="73.72" y="189.29" width="151.68" height="130.57"/><rect class="cls-11" x="80.58" y="212.39" width="13.23" height="24.86"/><rect class="cls-12" x="80.58" y="269.01" width="13.23" height="50.85"/><rect class="cls-12" x="111.76" y="212.39" width="13.23" height="25.72"/><rect class="cls-12" x="111.76" y="269.01" width="13.23" height="50.85"/><rect class="cls-12" x="142.94" y="212.39" width="13.23" height="25.72"/><rect class="cls-12" x="142.94" y="269.01" width="13.23" height="50.85"/><rect class="cls-12" x="174.14" y="212.39" width="13.23" height="25.72"/><rect class="cls-12" x="174.14" y="269.01" width="13.23" height="50.85"/><rect class="cls-12" x="205.32" y="212.39" width="13.23" height="25.72"/><rect class="cls-12" x="205.32" y="269.01" width="13.23" height="50.85"/><rect class="cls-9" x="65.76" y="181.84" width="168.92" height="14.78"/><rect class="cls-13" x="65.76" y="181.84" width="168.92" height="14.78"/><polygon class="cls-9" points="201 313.47 191.66 313.47 192.97 203.92 191.66 200.26 201 200.26 199.7 203.92 201 313.47"/><polygon class="cls-13" points="201 313.47 191.66 313.47 192.97 203.92 191.66 200.26 201 200.26 199.7 203.92 201 313.47"/><rect class="cls-9" x="190.36" y="309.38" width="11.95" height="10.45"/><rect class="cls-14" x="190.36" y="309.38" width="11.95" height="10.45"/><polygon class="cls-9" points="169.82 313.47 160.48 313.47 161.79 203.92 160.48 200.26 169.82 200.26 168.52 203.92 169.82 313.47"/><polygon class="cls-13" points="169.82 313.47 160.48 313.47 161.79 203.92 160.48 200.26 169.82 200.26 168.52 203.92 169.82 313.47"/><rect class="cls-9" x="159.18" y="309.38" width="11.95" height="10.45"/><rect class="cls-14" x="159.18" y="309.38" width="11.95" height="10.45"/><polygon class="cls-9" points="138.64 313.47 129.28 313.47 130.61 203.92 129.28 200.26 138.64 200.26 137.32 203.92 138.64 313.47"/><polygon class="cls-13" points="138.64 313.47 129.28 313.47 130.61 203.92 129.28 200.26 138.64 200.26 137.32 203.92 138.64 313.47"/><rect class="cls-9" x="128" y="309.38" width="11.95" height="10.45"/><rect class="cls-14" x="128" y="309.38" width="11.95" height="10.45"/><polygon class="cls-9" points="107.44 313.47 98.11 313.47 99.43 203.92 98.11 200.26 107.44 200.26 106.14 203.92 107.44 313.47"/><polygon class="cls-13" points="107.44 313.47 98.11 313.47 99.43 203.92 98.11 200.26 107.44 200.26 106.14 203.92 107.44 313.47"/><rect class="cls-9" x="96.82" y="309.38" width="11.95" height="10.45"/><rect class="cls-14" x="96.82" y="309.38" width="11.95" height="10.45"/><polygon class="cls-9" points="76.27 313.47 66.93 313.47 68.23 203.92 66.93 200.26 76.27 200.26 74.96 203.92 76.27 313.47"/><polygon class="cls-13" points="76.27 313.47 66.93 313.47 68.23 203.92 66.93 200.26 76.27 200.26 74.96 203.92 76.27 313.47"/><rect class="cls-9" x="65.62" y="309.38" width="11.95" height="10.45"/><rect class="cls-14" x="65.62" y="309.38" width="11.95" height="10.45"/><rect class="cls-9" x="64.5" y="194.22" width="171.46" height="6.07"/><rect class="cls-14" x="64.5" y="194.22" width="171.46" height="6.07"/><polygon class="cls-4" points="67.07 164.3 239.94 164.3 235.96 187.29 59.12 187.29 67.07 164.3"/><rect class="cls-9" x="65.52" y="307.13" width="11.95" height="12.7"/><rect class="cls-14" x="65.52" y="307.13" width="11.95" height="12.7"/><polyline class="cls-12" points="142.94 319.85 156.17 319.85 174.14 319.85 187.37 319.85 205.32 319.85 218.55 319.85 225.41 319.85 225.41 217.69 235.96 217.69 235.96 212.5 234.68 212.5 234.68 200.99 235.96 200.99 235.96 195.81 234.68 195.81 234.68 178.34 235.96 178.34 235.96 164.3 149.53 164.3 139.95 319.83"/><path class="cls-15" d="M128.88,276.19h146a.62.62,0,0,0,0-1.23H128.88a.62.62,0,0,0,0,1.23Z" transform="translate(-63 -75.12)"/><path class="cls-15" d="M124,263h146a.61.61,0,0,0,0-1.22H124a.61.61,0,0,0,0,1.22Z" transform="translate(-63 -75.12)"/><rect class="cls-9" x="360.03" y="189.29" width="151.68" height="130.57"/><rect class="cls-12" x="491.63" y="212.39" width="13.23" height="24.86"/><rect class="cls-12" x="491.63" y="269.01" width="13.23" height="50.85"/><rect class="cls-12" x="460.45" y="212.39" width="13.23" height="25.72"/><rect class="cls-12" x="460.45" y="269.01" width="13.23" height="50.85"/><rect class="cls-12" x="429.27" y="212.39" width="13.23" height="25.72"/><rect class="cls-12" x="429.27" y="269.01" width="13.23" height="50.85"/><rect class="cls-12" x="398.07" y="212.39" width="13.23" height="25.72"/><rect class="cls-12" x="398.07" y="269.01" width="13.23" height="50.85"/><rect class="cls-12" x="366.89" y="212.39" width="13.23" height="25.72"/><rect class="cls-12" x="366.89" y="269.01" width="13.23" height="50.85"/><rect class="cls-9" x="350.76" y="181.84" width="168.92" height="14.78"/><rect class="cls-13" x="350.76" y="181.84" width="168.92" height="14.78"/><polygon class="cls-9" points="385.74 203.92 384.44 200.26 393.77 200.26 392.47 203.92 393.77 313.47 384.44 313.47 385.74 203.92"/><polygon class="cls-13" points="385.74 203.92 384.44 200.26 393.77 200.26 392.47 203.92 393.77 313.47 384.44 313.47 385.74 203.92"/><rect class="cls-9" x="383.13" y="309.38" width="11.95" height="10.45"/><rect class="cls-14" x="383.13" y="309.38" width="11.95" height="10.45"/><polygon class="cls-9" points="416.92 203.92 415.62 200.26 424.95 200.26 423.65 203.92 424.95 313.47 415.62 313.47 416.92 203.92"/><polygon class="cls-13" points="416.92 203.92 415.62 200.26 424.95 200.26 423.65 203.92 424.95 313.47 415.62 313.47 416.92 203.92"/><rect class="cls-9" x="414.31" y="309.38" width="11.95" height="10.45"/><rect class="cls-14" x="414.31" y="309.38" width="11.95" height="10.45"/><polygon class="cls-9" points="448.12 203.92 446.79 200.26 456.15 200.26 454.83 203.92 456.15 313.47 446.79 313.47 448.12 203.92"/><polygon class="cls-13" points="448.12 203.92 446.79 200.26 456.15 200.26 454.83 203.92 456.15 313.47 446.79 313.47 448.12 203.92"/><rect class="cls-9" x="445.49" y="309.38" width="11.95" height="10.45"/><rect class="cls-14" x="445.49" y="309.38" width="11.95" height="10.45"/><polygon class="cls-9" points="479.3 203.92 477.99 200.26 487.33 200.26 486.01 203.92 487.33 313.47 477.99 313.47 479.3 203.92"/><polygon class="cls-13" points="479.3 203.92 477.99 200.26 487.33 200.26 486.01 203.92 487.33 313.47 477.99 313.47 479.3 203.92"/><rect class="cls-9" x="476.67" y="309.38" width="11.95" height="10.45"/><rect class="cls-14" x="476.67" y="309.38" width="11.95" height="10.45"/><polygon class="cls-9" points="510.48 203.92 509.17 200.26 518.51 200.26 517.21 203.92 518.51 313.47 509.17 313.47 510.48 203.92"/><polygon class="cls-13" points="510.48 203.92 509.17 200.26 518.51 200.26 517.21 203.92 518.51 313.47 509.17 313.47 510.48 203.92"/><rect class="cls-9" x="507.87" y="309.38" width="11.95" height="10.45"/><rect class="cls-14" x="507.87" y="309.38" width="11.95" height="10.45"/><rect class="cls-9" x="349.48" y="194.22" width="171.46" height="6.07"/><rect class="cls-14" x="349.48" y="194.22" width="171.46" height="6.07"/><polygon class="cls-4" points="526.32 187.29 349.48 187.29 345.5 164.3 518.37 164.3 526.32 187.29"/><rect class="cls-9" x="507.98" y="307.13" width="11.95" height="12.7"/><rect class="cls-14" x="507.98" y="307.13" width="11.95" height="12.7"/><polyline class="cls-12" points="442.5 319.85 429.27 319.85 411.3 319.85 398.07 319.85 380.12 319.85 366.89 319.85 360.03 319.85 360.03 217.69 349.48 217.69 349.48 212.5 350.76 212.5 350.76 200.99 349.48 200.99 349.48 195.81 350.76 195.81 350.76 178.34 349.48 178.34 349.48 164.3 435.91 164.3 445.49 319.83"/><path class="cls-15" d="M582.56,275H425.38a.62.62,0,0,0,0,1.23H582.56a.62.62,0,0,0,0-1.23Z" transform="translate(-63 -75.12)"/><path class="cls-15" d="M587.45,261.8H430.92a.61.61,0,0,0,0,1.22H587.45a.61.61,0,0,0,0-1.22Z" transform="translate(-63 -75.12)"/><rect class="cls-9" x="245.82" y="67.72" width="80.72" height="35.27"/><path class="cls-9" d="M349.62,99.46c-22.53,0-40.8,19.43-40.8,43.39h81.61C390.43,118.89,372.16,99.46,349.62,99.46Z" transform="translate(-63 -75.12)"/><path class="cls-16" d="M349.62,99.46c-22.53,0-40.8,19.43-40.8,43.39h81.61C390.43,118.89,372.16,99.46,349.62,99.46Z" transform="translate(-63 -75.12)"/><rect class="cls-9" x="209.54" y="136.8" width="156.26" height="38.99"/><rect class="cls-13" x="209.54" y="136.8" width="156.26" height="38.99"/><polygon class="cls-9" points="205.51 131.49 369.84 131.49 366.97 137.8 208.38 137.8 205.51 131.49"/><polygon class="cls-14" points="205.51 131.49 369.84 131.49 366.97 137.8 208.38 137.8 205.51 131.49"/><polygon class="cls-9" points="359.23 99.89 216.13 99.89 205.51 131.49 369.84 131.49 359.23 99.89"/><rect class="cls-9" x="218.07" y="176.36" width="139.22" height="145.44"/><rect class="cls-17" x="213.11" y="188.6" width="144.17" height="5.75"/><g class="cls-18"><path d="M281.67,339.75H420.28a1.23,1.23,0,0,0,0-2.45H281.67a1.23,1.23,0,0,0,0,2.45Z" transform="translate(-63 -75.12)"/></g><rect class="cls-9" x="209.55" y="168.18" width="156.26" height="16.37"/><rect class="cls-13" x="209.55" y="168.18" width="156.26" height="16.37"/><polygon class="cls-9" points="363.52 314.71 354.93 314.71 356.15 192.66 354.93 188.6 363.52 188.6 362.3 192.66 363.52 314.71"/><polygon class="cls-19" points="363.52 314.71 354.93 314.71 356.15 192.66 354.93 188.6 363.52 188.6 362.3 192.66 363.52 314.71"/><rect class="cls-9" x="353.75" y="310.17" width="10.96" height="11.66"/><rect class="cls-14" x="353.75" y="310.17" width="10.96" height="11.66"/><polygon class="cls-17" points="216.78 275.6 360.45 187.34 216.54 187.29 216.78 275.6"/><polygon class="cls-9" points="259.02 314.71 250.45 314.71 251.64 192.66 250.45 188.6 259.02 188.6 257.82 192.66 259.02 314.71"/><polygon class="cls-19" points="259.02 314.71 250.45 314.71 251.64 192.66 250.45 188.6 259.02 188.6 257.82 192.66 259.02 314.71"/><rect class="cls-9" x="249.25" y="310.17" width="10.96" height="11.66"/><rect class="cls-14" x="249.25" y="310.17" width="10.96" height="11.66"/><polygon class="cls-9" points="330.02 314.71 321.45 314.71 322.64 192.66 321.45 188.6 330.02 188.6 328.82 192.66 330.02 314.71"/><polygon class="cls-19" points="330.02 314.71 321.45 314.71 322.64 192.66 321.45 188.6 330.02 188.6 328.82 192.66 330.02 314.71"/><rect class="cls-9" x="320.25" y="310.17" width="10.96" height="11.66"/><rect class="cls-14" x="320.25" y="310.17" width="10.96" height="11.66"/><polygon class="cls-9" points="220.42 314.71 211.83 314.71 213.05 192.66 211.83 188.6 220.42 188.6 219.21 192.66 220.42 314.71"/><polygon class="cls-19" points="220.42 314.71 211.83 314.71 213.05 192.66 211.83 188.6 220.42 188.6 219.21 192.66 220.42 314.71"/><rect class="cls-9" x="210.65" y="310.17" width="10.96" height="11.66"/><rect class="cls-14" x="210.65" y="310.17" width="10.96" height="11.66"/><polygon class="cls-9" points="285.94 99.89 196.84 147.25 200.76 152.98 371.13 152.98 375.05 147.25 285.94 99.89"/><polygon class="cls-14" points="285.94 99.89 196.84 147.25 200.76 152.98 371.13 152.98 375.05 147.25 285.94 99.89"/><polygon class="cls-13" points="285.94 105.71 207.81 147.25 364.11 147.25 285.94 105.71"/><rect class="cls-9" x="208.38" y="181.84" width="158.59" height="6.76"/><rect class="cls-14" x="208.38" y="181.84" width="158.59" height="6.76"/><rect class="cls-16" x="264.37" y="207.09" width="18.13" height="43.48"/><path class="cls-13" d="M345.49,287.51s-7.56,3.3-8,10.52,2.17,9.53-2.72,13.57-7.44,4.77-7.44,4.77v6.35c0-.14,12.19-6.78,13.42-12.85s-4.61-9.39-1.09-13.57,5.79-4.91,5.79-4.91Z" transform="translate(-63 -75.12)"/><rect class="cls-16" x="223.63" y="205.6" width="18.13" height="43.48"/><path class="cls-13" d="M304.75,287.51s-7.56,3.3-8,10.52,2.17,9.53-2.72,13.57-7.44,4.77-7.44,4.77v6.35c0-.14,12.19-6.78,13.42-12.85s-4.61-9.39-1.09-13.57,5.79-4.91,5.79-4.91Z" transform="translate(-63 -75.12)"/><rect class="cls-16" x="225.62" y="272.69" width="18.13" height="43.48"/><path class="cls-13" d="M306.74,354.6s-7.56,3.3-8,10.52,2.17,9.53-2.72,13.57-7.44,4.77-7.44,4.77v6.35c0-.14,12.19-6.78,13.42-12.85s-4.61-9.39-1.09-13.57,5.79-4.91,5.79-4.91Z" transform="translate(-63 -75.12)"/><rect class="cls-16" x="334.59" y="272.69" width="18.13" height="43.48"/><path class="cls-13" d="M415.71,354.6s-7.56,3.3-8,10.52,2.18,9.53-2.71,13.57-7.44,4.77-7.44,4.77v6.35c0-.14,12.19-6.78,13.41-12.85s-4.61-9.39-1.08-13.57,5.79-4.91,5.79-4.91Z" transform="translate(-63 -75.12)"/><rect class="cls-16" x="297.56" y="205.6" width="18.13" height="43.48"/><path class="cls-13" d="M378.68,287.51s-7.56,3.3-8,10.52,2.18,9.53-2.71,13.57-7.44,4.77-7.44,4.77v6.35c0-.14,12.19-6.78,13.41-12.85s-4.61-9.39-1.08-13.57,5.79-4.91,5.79-4.91Z" transform="translate(-63 -75.12)"/><rect class="cls-16" x="334.32" y="205.6" width="18.13" height="43.48"/><path class="cls-13" d="M415.45,287.51s-7.56,3.3-8,10.52,2.17,9.53-2.72,13.57-7.44,4.77-7.44,4.77v6.35c0-.14,12.2-6.78,13.42-12.85s-4.61-9.39-1.08-13.57,5.79-4.91,5.79-4.91Z" transform="translate(-63 -75.12)"/><rect class="cls-16" x="264.79" y="272.69" width="52.18" height="49.13"/><polyline class="cls-20" points="264.79 321.82 264.79 272.69 316.96 272.69 316.96 321.82"/><path class="cls-21" d="M353.08,348.43v47.71a.62.62,0,0,0,1.23,0V348.43a.62.62,0,0,0-1.23,0Z" transform="translate(-63 -75.12)"/><path class="cls-15" d="M272.88,228.72H428.43a.62.62,0,0,0,0-1.23H272.88a.62.62,0,0,0,0,1.23Z" transform="translate(-63 -75.12)"/><rect class="cls-9" x="243.56" y="66.57" width="87.65" height="3.87"/><rect class="cls-14" x="243.56" y="66.57" width="87.65" height="3.87"/><g class="cls-22"><path class="cls-21" d="M326.6,142.08c-1.41-16,5.16-32.9,18.08-42.68.31-.24,0-.77-.31-.53-10.11,7.65-16.43,19.66-18.13,32.13a49.47,49.47,0,0,0-.25,11.08c0,.39.64.39.61,0Z" transform="translate(-63 -75.12)"/></g><g class="cls-22"><path class="cls-21" d="M372.8,141.14a48.57,48.57,0,0,0-10.87-35A42.69,42.69,0,0,0,354.42,99c-.32-.24-.63.29-.31.53,12.77,9.43,19.5,25.9,18.07,41.58,0,.4.58.39.62,0Z" transform="translate(-63 -75.12)"/></g><g class="cls-22"><path class="cls-21" d="M348.64,99.74v41.74a.31.31,0,0,0,.61,0V99.74a.31.31,0,0,0-.61,0Z" transform="translate(-63 -75.12)"/></g><g class="cls-22"><path class="cls-21" d="M325,108.68h49a.31.31,0,0,0,0-.62H325a.31.31,0,0,0,0,.62Z" transform="translate(-63 -75.12)"/></g><g class="cls-22"><path class="cls-21" d="M315.4,120.52h69a.31.31,0,0,0,0-.61h-69a.31.31,0,0,0,0,.61Z" transform="translate(-63 -75.12)"/></g><g class="cls-22"><path class="cls-21" d="M310.51,134.1h79a.31.31,0,0,0,0-.61h-79a.31.31,0,0,0,0,.61Z" transform="translate(-63 -75.12)"/></g><path class="cls-9" d="M349.54,82.51c3.8,0,5,7.53,5,7.53H344.52S346,82.51,349.54,82.51Z" transform="translate(-63 -75.12)"/><rect class="cls-9" x="287.14" y="14.92" width="1.62" height="8.55"/><rect class="cls-9" x="284.32" y="14.92" width="1.62" height="8.55"/><rect class="cls-9" x="281.52" y="14.92" width="1.62" height="8.55"/><rect class="cls-9" x="289.94" y="14.92" width="1.62" height="8.55"/><polygon class="cls-9" points="280.24 24.84 292.85 24.84 292.63 22.1 280.46 22.1 280.24 24.84"/><polygon class="cls-9" points="280.94 16.14 292.15 16.14 291.94 13.69 281.14 13.69 280.94 16.14"/><polygon class="cls-14" points="280.94 16.14 292.15 16.14 291.94 13.69 281.14 13.69 280.94 16.14"/><g class="cls-23"><path class="cls-21" d="M323.47,139.91a58.22,58.22,0,0,1,12.14-35.4,49.3,49.3,0,0,0-16.41,14.56,38.25,38.25,0,0,0-7,21.27Z" transform="translate(-63 -75.12)"/></g><path class="cls-15" d="M307.45,141.94h85.13a.62.62,0,0,0,0-1.23H307.45a.62.62,0,0,0,0,1.23Z" transform="translate(-63 -75.12)"/><polygon class="cls-24" points="245.82 70.44 245.82 88.96 326.54 77.3 326.54 70.44 245.82 70.44"/><path class="cls-15" d="M279.54,175.93H422.71a.61.61,0,0,0,0-1.22H279.54a.61.61,0,0,0,0,1.22Z" transform="translate(-63 -75.12)"/><path class="cls-15" d="M272.41,264.59H430.59a.61.61,0,0,0,0-1.22H272.41a.61.61,0,0,0,0,1.22Z" transform="translate(-63 -75.12)"/><path class="cls-17" d="M379.15,348.43c-.56.41-50.79,40.16-50.79,40.16V348.43Z" transform="translate(-63 -75.12)"/></g><g id="Trees"><polygon class="cls-15" points="53.94 288.79 52.94 321.02 55.56 321.02 54.56 288.79 53.94 288.79"/><path class="cls-9" d="M124,378.25c1,.64,3.4,2.09,4,1.32,1.37-1.91-1-5.75-3.82-9.27.8.41,1.64.7,1.92.31,1.21-1.69-1.15-5.24-3.74-8.3.76.46,1.92,1.05,2.23.62,1.4-2-3.06-7-5.61-9.57a2.12,2.12,0,0,0-3.14.06l0,.05c-2.32,2.7-6.29,7.82-4.91,9.73.19.26.67.19,1.21,0-2.11,3-3.83,6.2-2.72,7.73.17.24.56.25,1,.14-2.38,3.47-4.2,7.11-2.91,8.89.33.46,1.29.24,2.27-.16-3,4.19-5.39,8.74-3.83,10.91.88,1.22,5.57-1.69,5.57-1.69s.86,2.73,1.63,2.91c1.45.34,4.9-3.52,4.9-3.52s2.86,3.73,4.18,3.52c1-.15,2.3-3.52,2.3-3.52s4.24,3,5,1.84C131.21,387.81,127.7,382.63,124,378.25Z" transform="translate(-63 -75.12)"/><path class="cls-25" d="M124,378.25c1,.64,3.4,2.09,4,1.32,1.37-1.91-1-5.75-3.82-9.27.8.41,1.64.7,1.92.31,1.21-1.69-1.15-5.24-3.74-8.3.76.46,1.92,1.05,2.23.62,1.4-2-3.06-7-5.61-9.57a2.12,2.12,0,0,0-3.14.06l0,.05c-2.32,2.7-6.29,7.82-4.91,9.73.19.26.67.19,1.21,0-2.11,3-3.83,6.2-2.72,7.73.17.24.56.25,1,.14-2.38,3.47-4.2,7.11-2.91,8.89.33.46,1.29.24,2.27-.16-3,4.19-5.39,8.74-3.83,10.91.88,1.22,5.57-1.69,5.57-1.69s.86,2.73,1.63,2.91c1.45.34,4.9-3.52,4.9-3.52s2.86,3.73,4.18,3.52c1-.15,2.3-3.52,2.3-3.52s4.24,3,5,1.84C131.21,387.81,127.7,382.63,124,378.25Z" transform="translate(-63 -75.12)"/><polygon class="cls-15" points="534.76 288.79 533.75 321.02 536.38 321.02 535.38 288.79 534.76 288.79"/><path class="cls-9" d="M604.77,378.25c1,.64,3.41,2.09,4,1.32,1.36-1.91-1-5.75-3.82-9.27.8.41,1.64.7,1.92.31,1.21-1.69-1.16-5.24-3.74-8.3.76.46,1.92,1.05,2.23.62,1.4-2-3.06-7-5.61-9.57a2.12,2.12,0,0,0-3.14.06l0,.05c-2.32,2.7-6.29,7.82-4.91,9.73.18.26.67.19,1.21,0-2.11,3-3.83,6.2-2.72,7.73.17.24.56.25,1,.14-2.39,3.47-4.2,7.11-2.91,8.89.33.46,1.29.24,2.27-.16-3,4.19-5.39,8.74-3.83,10.91.88,1.22,5.56-1.69,5.56-1.69s.86,2.73,1.64,2.91c1.44.34,4.9-3.52,4.9-3.52s2.86,3.73,4.18,3.52c1-.15,2.3-3.52,2.3-3.52s4.24,3,5,1.84C612,387.81,608.51,382.63,604.77,378.25Z" transform="translate(-63 -75.12)"/><path class="cls-25" d="M604.77,378.25c1,.64,3.41,2.09,4,1.32,1.36-1.91-1-5.75-3.82-9.27.8.41,1.64.7,1.92.31,1.21-1.69-1.16-5.24-3.74-8.3.76.46,1.92,1.05,2.23.62,1.4-2-3.06-7-5.61-9.57a2.12,2.12,0,0,0-3.14.06l0,.05c-2.32,2.7-6.29,7.82-4.91,9.73.18.26.67.19,1.21,0-2.11,3-3.83,6.2-2.72,7.73.17.24.56.25,1,.14-2.39,3.47-4.2,7.11-2.91,8.89.33.46,1.29.24,2.27-.16-3,4.19-5.39,8.74-3.83,10.91.88,1.22,5.56-1.69,5.56-1.69s.86,2.73,1.64,2.91c1.44.34,4.9-3.52,4.9-3.52s2.86,3.73,4.18,3.52c1-.15,2.3-3.52,2.3-3.52s4.24,3,5,1.84C612,387.81,608.51,382.63,604.77,378.25Z" transform="translate(-63 -75.12)"/></g></svg>