<svg xmlns="http://www.w3.org/2000/svg" viewBox="0 0 732.24 476.6"><defs><style>.cls-1{opacity:0.48;}.cls-2,.cls-3,.cls-8{fill:#87d6ea;}.cls-3{opacity:0.7;}.cls-4{opacity:0.31;}.cls-10,.cls-5{fill:none;}.cls-5{stroke:#000;}.cls-10,.cls-11,.cls-5,.cls-7,.cls-8,.cls-9{stroke-miterlimit:10;}.cls-6,.cls-7{fill:#026c85;}.cls-10,.cls-11,.cls-7,.cls-8,.cls-9{stroke:#026c85;}.cls-9{fill:#dedede;}.cls-11{fill:#ccc;}.cls-12{fill:#a1a1a1;}</style></defs><title>muxtar</title><g id="Floor"><g class="cls-1"><path class="cls-2" d="M621.13,46.38a252.73,252.73,0,0,1-34.2,8.28c-52.45,8.7-173.38,27.32-232,24.64C278.86,75.83,37.75-16.8,19.53,36.46S6.67,479.93,42,488s160.74-55.57,234.68-57.89,250.75,60.21,323.62,63.68,79.3-9.26,96.45-77.57,35.36-292.95,32.14-345C726.2,26.91,648.37,37.84,621.13,46.38Z" transform="translate(-9.32 -17.74)"/><path class="cls-3" d="M621.13,46.38a252.73,252.73,0,0,1-34.2,8.28c-52.45,8.7-173.38,27.32-232,24.64C278.86,75.83,37.75-16.8,19.53,36.46S6.67,479.93,42,488s160.74-55.57,234.68-57.89,250.75,60.21,323.62,63.68,79.3-9.26,96.45-77.57,35.36-292.95,32.14-345C726.2,26.91,648.37,37.84,621.13,46.38Z" transform="translate(-9.32 -17.74)"/></g><g class="cls-4"><polyline class="cls-5" points="141 107.26 141 135.69 158.01 135.69 158.01 81.91 196.05 81.91 196.05 93.75 228.59 93.75 228.59 253.61 241.6 253.61 241.6 224.5 277.13 224.5 277.13 253.12 294.15 253.12 294.15 48.9 351.71 48.9 351.71 244.24 368.23 244.24"/><polyline class="cls-5" points="52.91 169.23 52.91 255.09 67.92 255.09 67.92 73.92 95.95 73.92 95.95 0.5 141 0.5 141 92.21"/><polyline class="cls-5" points="39.9 36.02 39.9 133.72 52.91 133.72 52.91 158.61"/><polyline class="cls-5" points="31.22 36.02 39.9 36.02 39.9 29.61 30.35 29.61"/><rect class="cls-5" x="67.75" y="73.91" width="28.2" height="3.25"/><rect class="cls-5" x="95.82" y="0.5" width="45.18" height="3.16"/><rect class="cls-5" x="161.6" y="75.2" width="6.58" height="6.7"/><rect class="cls-5" x="181.99" y="78.01" width="3.29" height="3.89"/><rect class="cls-5" x="196.05" y="93.75" width="32.64" height="3.93"/><rect class="cls-5" x="294.15" y="45.97" width="57.55" height="2.93"/><rect class="cls-5" x="308.94" y="40.13" width="22.8" height="5.84"/><polyline class="cls-5" points="326.92 40.35 326.92 34.94 343.59 34.94 343.59 45.75"/><polyline class="cls-5" points="249.6 48.46 269.84 48.46 269.84 84.65 287.98 84.65 287.98 23.08 355.67 23.08 355.67 97.54 359.99 97.54"/><polyline class="cls-5" points="217.09 92.14 217.09 48.46 243.41 48.46"/><polyline class="cls-5" points="179.11 49.72 179.11 22.25 143.24 22.25"/><line class="cls-5" x1="179.11" y1="70.51" x2="179.11" y2="57.69"/><polyline class="cls-5" points="66.02 82.57 54.21 82.57 54.21 48.88 42.81 48.88"/><rect class="cls-5" x="99.36" y="9.77" width="4.53" height="8.74"/><rect class="cls-5" x="107.51" y="9.77" width="4.53" height="8.74"/><rect class="cls-5" x="115.66" y="9.77" width="4.53" height="8.74"/><rect class="cls-5" x="123.81" y="9.77" width="4.53" height="8.74"/><rect class="cls-5" x="131.96" y="9.77" width="4.53" height="8.74"/><rect class="cls-5" x="99.36" y="24.54" width="4.53" height="8.74"/><rect class="cls-5" x="107.51" y="24.54" width="4.53" height="8.74"/><rect class="cls-5" x="115.66" y="24.54" width="4.53" height="8.74"/><rect class="cls-5" x="123.81" y="24.54" width="4.53" height="8.74"/><rect class="cls-5" x="131.96" y="24.54" width="4.53" height="8.74"/><rect class="cls-5" x="99.36" y="39.31" width="4.53" height="8.74"/><rect class="cls-5" x="107.51" y="39.31" width="4.53" height="8.74"/><rect class="cls-5" x="115.66" y="39.31" width="4.53" height="8.74"/><rect class="cls-5" x="123.81" y="39.31" width="4.53" height="8.74"/><rect class="cls-5" x="131.96" y="39.31" width="4.53" height="8.74"/><rect class="cls-5" x="99.36" y="54.07" width="4.53" height="8.74"/><rect class="cls-5" x="107.51" y="54.07" width="4.53" height="8.74"/><rect class="cls-5" x="115.66" y="54.07" width="4.53" height="8.74"/><rect class="cls-5" x="123.81" y="54.07" width="4.53" height="8.74"/><rect class="cls-5" x="131.96" y="54.07" width="4.53" height="8.74"/><rect class="cls-5" x="99.36" y="68.84" width="4.53" height="8.74"/><rect class="cls-5" x="107.51" y="68.84" width="4.53" height="8.74"/><rect class="cls-5" x="115.66" y="68.84" width="4.53" height="8.74"/><rect class="cls-5" x="123.81" y="68.84" width="4.53" height="8.74"/><rect class="cls-5" x="131.96" y="68.84" width="4.53" height="8.74"/><rect class="cls-5" x="99.36" y="83.61" width="4.53" height="8.74"/><rect class="cls-5" x="107.51" y="83.61" width="4.53" height="8.74"/><rect class="cls-5" x="115.66" y="83.61" width="4.53" height="8.74"/><rect class="cls-5" x="123.81" y="83.61" width="4.53" height="8.74"/><rect class="cls-5" x="131.96" y="83.61" width="4.53" height="8.74"/><rect class="cls-5" x="71.57" y="83.61" width="4.53" height="8.74"/><rect class="cls-5" x="79.72" y="83.61" width="4.53" height="8.74"/><rect class="cls-5" x="87.87" y="83.61" width="4.53" height="8.74"/><rect class="cls-5" x="71.57" y="97.96" width="4.53" height="8.74"/><rect class="cls-5" x="79.72" y="97.96" width="4.53" height="8.74"/><rect class="cls-5" x="87.87" y="97.96" width="4.53" height="8.74"/><rect class="cls-5" x="71.57" y="112.31" width="4.53" height="8.74"/><rect class="cls-5" x="79.72" y="112.31" width="4.53" height="8.74"/><rect class="cls-5" x="87.87" y="112.31" width="4.53" height="8.74"/><rect class="cls-5" x="71.57" y="126.66" width="4.53" height="8.74"/><rect class="cls-5" x="79.72" y="126.66" width="4.53" height="8.74"/><rect class="cls-5" x="87.87" y="126.66" width="4.53" height="8.74"/><rect class="cls-5" x="71.57" y="141.01" width="4.53" height="8.74"/><rect class="cls-5" x="79.72" y="141.01" width="4.53" height="8.74"/><rect class="cls-5" x="87.87" y="141.01" width="4.53" height="8.74"/><rect class="cls-5" x="71.57" y="155.37" width="4.53" height="8.74"/><rect class="cls-5" x="79.72" y="155.37" width="4.53" height="8.74"/><rect class="cls-5" x="87.87" y="155.37" width="4.53" height="8.74"/><rect class="cls-5" x="71.57" y="169.72" width="4.53" height="8.74"/><rect class="cls-5" x="79.72" y="169.72" width="4.53" height="8.74"/><rect class="cls-5" x="87.87" y="169.72" width="4.53" height="8.74"/><rect class="cls-5" x="71.57" y="184.07" width="4.53" height="8.74"/><rect class="cls-5" x="79.72" y="184.07" width="4.53" height="8.74"/><rect class="cls-5" x="87.87" y="184.07" width="4.53" height="8.74"/><rect class="cls-5" x="71.57" y="198.42" width="4.53" height="8.74"/><rect class="cls-5" x="79.72" y="198.42" width="4.53" height="8.74"/><rect class="cls-5" x="87.87" y="198.42" width="4.53" height="8.74"/><rect class="cls-5" x="71.57" y="212.77" width="4.53" height="8.74"/><rect class="cls-5" x="79.72" y="212.77" width="4.53" height="8.74"/><rect class="cls-5" x="87.87" y="212.77" width="4.53" height="8.74"/><rect class="cls-5" x="71.57" y="227.12" width="4.53" height="8.74"/><rect class="cls-5" x="79.72" y="227.12" width="4.53" height="8.74"/><rect class="cls-5" x="87.87" y="227.12" width="4.53" height="8.74"/><rect class="cls-5" x="144.25" y="142.68" width="4.53" height="8.74"/><rect class="cls-5" x="152.4" y="142.68" width="4.53" height="8.74"/><rect class="cls-5" x="144.25" y="157.03" width="4.53" height="8.74"/><rect class="cls-5" x="152.4" y="157.03" width="4.53" height="8.74"/><rect class="cls-5" x="144.25" y="171.38" width="4.53" height="8.74"/><rect class="cls-5" x="152.4" y="171.38" width="4.53" height="8.74"/><rect class="cls-5" x="144.25" y="185.73" width="4.53" height="8.74"/><rect class="cls-5" x="152.4" y="185.73" width="4.53" height="8.74"/><rect class="cls-5" x="144.25" y="200.08" width="4.53" height="8.74"/><rect class="cls-5" x="152.4" y="200.08" width="4.53" height="8.74"/><rect class="cls-5" x="144.25" y="214.43" width="4.53" height="8.74"/><rect class="cls-5" x="152.4" y="214.43" width="4.53" height="8.74"/><rect class="cls-5" x="144.25" y="228.79" width="4.53" height="8.74"/><rect class="cls-5" x="152.4" y="228.79" width="4.53" height="8.74"/><rect class="cls-5" x="99.36" y="98.38" width="4.53" height="8.74"/><rect class="cls-5" x="107.51" y="98.38" width="4.53" height="8.74"/><rect class="cls-5" x="115.66" y="98.38" width="4.53" height="8.74"/><rect class="cls-5" x="123.81" y="98.38" width="4.53" height="8.74"/><rect class="cls-5" x="131.96" y="98.38" width="4.53" height="8.74"/><rect class="cls-5" x="99.36" y="113.14" width="4.53" height="8.74"/><rect class="cls-5" x="107.51" y="113.14" width="4.53" height="8.74"/><rect class="cls-5" x="115.66" y="113.14" width="4.53" height="8.74"/><rect class="cls-5" x="123.81" y="113.14" width="4.53" height="8.74"/><rect class="cls-5" x="131.96" y="113.14" width="4.53" height="8.74"/><rect class="cls-5" x="99.36" y="127.91" width="4.53" height="8.74"/><rect class="cls-5" x="107.51" y="127.91" width="4.53" height="8.74"/><rect class="cls-5" x="115.66" y="127.91" width="4.53" height="8.74"/><rect class="cls-5" x="123.81" y="127.91" width="4.53" height="8.74"/><rect class="cls-5" x="131.96" y="127.91" width="4.53" height="8.74"/><rect class="cls-5" x="99.36" y="142.68" width="4.53" height="8.74"/><rect class="cls-5" x="107.51" y="142.68" width="4.53" height="8.74"/><rect class="cls-5" x="115.66" y="142.68" width="4.53" height="8.74"/><rect class="cls-5" x="123.81" y="142.68" width="4.53" height="8.74"/><rect class="cls-5" x="131.96" y="142.68" width="4.53" height="8.74"/><rect class="cls-5" x="99.36" y="157.45" width="4.53" height="8.74"/><rect class="cls-5" x="107.51" y="157.45" width="4.53" height="8.74"/><rect class="cls-5" x="115.66" y="157.45" width="4.53" height="8.74"/><rect class="cls-5" x="123.81" y="157.45" width="4.53" height="8.74"/><rect class="cls-5" x="131.96" y="157.45" width="4.53" height="8.74"/><rect class="cls-5" x="99.36" y="172.21" width="4.53" height="8.74"/><rect class="cls-5" x="107.51" y="172.21" width="4.53" height="8.74"/><rect class="cls-5" x="115.66" y="172.21" width="4.53" height="8.74"/><rect class="cls-5" x="123.81" y="172.21" width="4.53" height="8.74"/><rect class="cls-5" x="131.96" y="172.21" width="4.53" height="8.74"/><rect class="cls-5" x="99.36" y="186.98" width="4.53" height="8.74"/><rect class="cls-5" x="107.51" y="186.98" width="4.53" height="8.74"/><rect class="cls-5" x="115.66" y="186.98" width="4.53" height="8.74"/><rect class="cls-5" x="123.81" y="186.98" width="4.53" height="8.74"/><rect class="cls-5" x="131.96" y="186.98" width="4.53" height="8.74"/><rect class="cls-5" x="99.36" y="201.75" width="4.53" height="8.74"/><rect class="cls-5" x="107.51" y="201.75" width="4.53" height="8.74"/><rect class="cls-5" x="115.66" y="201.75" width="4.53" height="8.74"/><rect class="cls-5" x="123.81" y="201.75" width="4.53" height="8.74"/><rect class="cls-5" x="131.96" y="201.75" width="4.53" height="8.74"/><rect class="cls-5" x="99.36" y="216.51" width="4.53" height="8.74"/><rect class="cls-5" x="107.51" y="216.51" width="4.53" height="8.74"/><rect class="cls-5" x="115.66" y="216.51" width="4.53" height="8.74"/><rect class="cls-5" x="123.81" y="216.51" width="4.53" height="8.74"/><rect class="cls-5" x="131.96" y="216.51" width="4.53" height="8.74"/><rect class="cls-5" x="99.36" y="231.7" width="4.53" height="8.74"/><rect class="cls-5" x="107.51" y="231.7" width="4.53" height="8.74"/><rect class="cls-5" x="115.66" y="231.7" width="4.53" height="8.74"/><rect class="cls-5" x="123.81" y="231.7" width="4.53" height="8.74"/><rect class="cls-5" x="131.96" y="231.7" width="4.53" height="8.74"/><line class="cls-5" x1="95.95" y1="77.16" x2="95.95" y2="255.2"/><line class="cls-5" x1="165.19" y1="85.48" x2="165.19" y2="252.7"/><line class="cls-5" x1="174.05" y1="85.48" x2="174.05" y2="252.7"/><line class="cls-5" x1="182.91" y1="153.29" x2="182.91" y2="252.7"/><line class="cls-5" x1="182.91" y1="85.48" x2="182.91" y2="145.33"/><line class="cls-5" x1="191.77" y1="85.48" x2="191.77" y2="252.7"/><line class="cls-5" x1="200.63" y1="102.12" x2="200.63" y2="252.7"/><line class="cls-5" x1="209.49" y1="135.59" x2="209.49" y2="252.7"/><line class="cls-5" x1="209.49" y1="102.12" x2="209.49" y2="125.85"/><line class="cls-5" x1="218.36" y1="102.12" x2="218.36" y2="252.7"/><line class="cls-5" x1="24.69" y1="45.55" x2="36.91" y2="45.55"/><line class="cls-5" x1="24.69" y1="56.36" x2="36.91" y2="56.36"/><line class="cls-5" x1="24.69" y1="67.18" x2="36.91" y2="67.18"/><line class="cls-5" x1="24.69" y1="77.99" x2="36.91" y2="77.99"/><line class="cls-5" x1="24.69" y1="88.81" x2="36.91" y2="88.81"/><line class="cls-5" x1="24.69" y1="99.62" x2="36.91" y2="99.62"/><line class="cls-5" x1="24.69" y1="110.44" x2="36.91" y2="110.44"/><line class="cls-5" x1="24.69" y1="121.26" x2="36.91" y2="121.26"/><line class="cls-5" x1="24.69" y1="132.07" x2="36.91" y2="132.07"/><line class="cls-5" x1="24.69" y1="142.89" x2="36.91" y2="142.89"/><line class="cls-5" x1="24.69" y1="153.7" x2="36.91" y2="153.7"/><line class="cls-5" x1="24.69" y1="164.52" x2="36.91" y2="164.52"/><line class="cls-5" x1="24.69" y1="175.33" x2="36.91" y2="175.33"/><line class="cls-5" x1="24.69" y1="186.15" x2="36.91" y2="186.15"/><line class="cls-5" x1="24.69" y1="196.96" x2="36.91" y2="196.96"/><line class="cls-5" x1="24.69" y1="207.78" x2="36.91" y2="207.78"/><line class="cls-5" x1="24.69" y1="218.59" x2="36.91" y2="218.59"/><line class="cls-5" x1="24.69" y1="229.41" x2="36.91" y2="229.41"/><line class="cls-5" x1="24.69" y1="240.23" x2="36.91" y2="240.23"/><line class="cls-5" x1="24.69" y1="251.04" x2="36.91" y2="251.04"/><line class="cls-5" x1="24.69" y1="261.86" x2="36.91" y2="261.86"/><rect class="cls-5" x="296" y="113.35" width="53.17" height="4.99"/><rect class="cls-5" x="296" y="104.63" width="53.17" height="4.99"/><rect class="cls-5" x="296" y="95.91" width="53.17" height="4.99"/><rect class="cls-5" x="296" y="87.19" width="53.17" height="4.99"/><rect class="cls-5" x="296" y="78.47" width="53.17" height="4.99"/><rect class="cls-5" x="296" y="69.75" width="53.17" height="4.99"/><rect class="cls-5" x="296" y="61.02" width="53.17" height="4.99"/><rect class="cls-5" x="296" y="52.3" width="53.17" height="4.99"/><rect class="cls-5" x="296" y="122.09" width="53.17" height="4.99"/><rect class="cls-5" x="296" y="130.82" width="53.17" height="4.99"/><rect class="cls-5" x="296" y="139.56" width="53.17" height="4.99"/><rect class="cls-5" x="296" y="148.29" width="53.17" height="4.99"/><rect class="cls-5" x="296" y="157.03" width="53.17" height="4.99"/><rect class="cls-5" x="296" y="165.77" width="53.17" height="4.99"/><rect class="cls-5" x="296" y="174.5" width="53.17" height="4.99"/><rect class="cls-5" x="296" y="183.24" width="53.17" height="4.99"/><rect class="cls-5" x="296" y="191.97" width="53.17" height="4.99"/><rect class="cls-5" x="296" y="200.71" width="53.17" height="4.99"/><rect class="cls-5" x="296" y="209.44" width="53.17" height="4.99"/><rect class="cls-5" x="296" y="218.18" width="53.17" height="4.99"/><rect class="cls-5" x="296" y="226.91" width="53.17" height="4.99"/><rect class="cls-5" x="296" y="235.65" width="53.17" height="4.99"/><rect class="cls-5" x="296" y="244.38" width="53.17" height="4.99"/><rect class="cls-5" x="296" y="253.12" width="53.17" height="4.99"/><rect class="cls-5" x="246.63" y="210.69" width="26.58" height="13.73"/><rect class="cls-5" x="252.96" y="186.56" width="13.93" height="24.13"/><line class="cls-5" x1="141" y1="135.69" x2="141" y2="254.87"/><line class="cls-5" x1="293.69" y1="122.63" x2="229.14" y2="122.63"/><line class="cls-5" x1="293.69" y1="129.74" x2="229.14" y2="129.74"/><rect class="cls-5" x="232.02" y="135.07" width="9.85" height="7.11"/><rect class="cls-5" x="244.17" y="135.07" width="9.85" height="7.11"/><rect class="cls-5" x="256.31" y="135.07" width="9.85" height="7.11"/><rect class="cls-5" x="268.45" y="135.07" width="9.85" height="7.11"/><rect class="cls-5" x="280.6" y="135.07" width="9.85" height="7.11"/><rect class="cls-5" x="232.02" y="146.09" width="9.85" height="7.11"/><rect class="cls-5" x="244.17" y="146.09" width="9.85" height="7.11"/><rect class="cls-5" x="256.31" y="146.09" width="9.85" height="7.11"/><rect class="cls-5" x="268.45" y="146.09" width="9.85" height="7.11"/><rect class="cls-5" x="280.6" y="146.09" width="9.85" height="7.11"/><rect class="cls-5" x="232.02" y="157.11" width="9.85" height="7.11"/><rect class="cls-5" x="244.17" y="157.11" width="9.85" height="7.11"/><rect class="cls-5" x="256.31" y="157.11" width="9.85" height="7.11"/><rect class="cls-5" x="268.45" y="157.11" width="9.85" height="7.11"/><rect class="cls-5" x="280.6" y="157.11" width="9.85" height="7.11"/><rect class="cls-5" x="232.02" y="177.02" width="9.85" height="7.11"/><rect class="cls-5" x="244.17" y="177.02" width="9.85" height="7.11"/><rect class="cls-5" x="256.31" y="177.02" width="9.85" height="7.11"/><rect class="cls-5" x="268.45" y="177.02" width="9.85" height="7.11"/><rect class="cls-5" x="280.6" y="177.02" width="9.85" height="7.11"/><polyline class="cls-5" points="595.73 135.69 590.41 135.69 590.41 81.91 552.38 81.91 552.38 93.75 519.84 93.75 519.84 253.61 506.83 253.61 506.83 224.5 471.3 224.5 471.3 253.12 454.28 253.12 454.28 109.05 396.72 109.05 396.72 244.24 380.2 244.24"/><polyline class="cls-5" points="708.53 117.89 708.53 133.72 695.52 133.72 695.52 255.09 680.51 255.09 680.51 131.03 652.48 131.03 652.48 0.5 607.43 0.5 607.43 135.69 601.04 135.69"/><line class="cls-5" x1="708.53" y1="36.02" x2="708.53" y2="109.03"/><polyline class="cls-5" points="717.21 36.02 708.53 36.02 708.53 29.61 718.08 29.61"/><rect class="cls-5" x="661.8" y="148.76" width="28.2" height="3.25" transform="translate(1342.47 283.03) rotate(180)"/><rect class="cls-5" x="616.75" y="18.24" width="45.18" height="3.16" transform="translate(1269.36 21.89) rotate(180)"/><rect class="cls-5" x="589.57" y="92.94" width="6.58" height="6.7" transform="translate(1176.4 174.85) rotate(180)"/><rect class="cls-5" x="572.47" y="95.75" width="3.29" height="3.89" transform="translate(1138.91 177.66) rotate(180)"/><rect class="cls-5" x="529.06" y="111.49" width="32.64" height="3.93" transform="translate(1081.43 209.17) rotate(180)"/><rect class="cls-5" x="406.05" y="123.85" width="57.55" height="2.93" transform="translate(860.33 232.9) rotate(180)"/><rect class="cls-5" x="426" y="118.01" width="22.8" height="5.84" transform="translate(865.49 224.13) rotate(180)"/><polyline class="cls-5" points="421.51 100.49 421.51 95.09 404.84 95.09 404.84 105.9"/><polyline class="cls-5" points="402.22 50.61 402.22 97.54 386.58 97.54"/><polyline class="cls-5" points="460.45 65.66 460.45 23.08 402.22 23.08 402.22 39.98"/><polyline class="cls-5" points="531.34 92.14 531.34 48.46 478.59 48.46 478.59 84.65 460.45 84.65 460.45 73.62"/><polyline class="cls-5" points="359.62 174.74 359.62 76.1 386.58 76.1 386.58 170.38 393.22 170.38"/><polyline class="cls-5" points="569.32 70.51 569.32 22.25 605.18 22.25"/><polyline class="cls-5" points="705.61 48.88 694.22 48.88 694.22 103.25 682.4 103.25 682.4 72.13 675.11 72.13 675.11 97.37 669.77 97.37 669.77 60.91 662.66 60.91 662.66 96.67 655.19 96.67"/><rect class="cls-5" x="653.86" y="27.51" width="4.53" height="8.74" transform="translate(1302.93 46.02) rotate(180)"/><rect class="cls-5" x="645.71" y="27.51" width="4.53" height="8.74" transform="translate(1286.63 46.02) rotate(180)"/><rect class="cls-5" x="637.56" y="27.51" width="4.53" height="8.74" transform="translate(1270.33 46.02) rotate(180)"/><rect class="cls-5" x="629.41" y="27.51" width="4.53" height="8.74" transform="translate(1254.02 46.02) rotate(180)"/><rect class="cls-5" x="621.26" y="27.51" width="4.53" height="8.74" transform="translate(1237.72 46.02) rotate(180)"/><rect class="cls-5" x="653.86" y="42.28" width="4.53" height="8.74" transform="translate(1302.93 75.55) rotate(180)"/><rect class="cls-5" x="645.71" y="42.28" width="4.53" height="8.74" transform="translate(1286.63 75.55) rotate(180)"/><rect class="cls-5" x="637.56" y="42.28" width="4.53" height="8.74" transform="translate(1270.33 75.55) rotate(180)"/><rect class="cls-5" x="629.41" y="42.28" width="4.53" height="8.74" transform="translate(1254.02 75.55) rotate(180)"/><rect class="cls-5" x="621.26" y="42.28" width="4.53" height="8.74" transform="translate(1237.72 75.55) rotate(180)"/><rect class="cls-5" x="653.86" y="57.04" width="4.53" height="8.74" transform="translate(1302.93 105.09) rotate(180)"/><rect class="cls-5" x="645.71" y="57.04" width="4.53" height="8.74" transform="translate(1286.63 105.09) rotate(180)"/><rect class="cls-5" x="637.56" y="57.04" width="4.53" height="8.74" transform="translate(1270.33 105.09) rotate(180)"/><rect class="cls-5" x="629.41" y="57.04" width="4.53" height="8.74" transform="translate(1254.02 105.09) rotate(180)"/><rect class="cls-5" x="621.26" y="57.04" width="4.53" height="8.74" transform="translate(1237.72 105.09) rotate(180)"/><rect class="cls-5" x="653.86" y="71.81" width="4.53" height="8.74" transform="translate(1302.93 134.62) rotate(180)"/><rect class="cls-5" x="645.71" y="71.81" width="4.53" height="8.74" transform="translate(1286.63 134.62) rotate(180)"/><rect class="cls-5" x="637.56" y="71.81" width="4.53" height="8.74" transform="translate(1270.33 134.62) rotate(180)"/><rect class="cls-5" x="629.41" y="71.81" width="4.53" height="8.74" transform="translate(1254.02 134.62) rotate(180)"/><rect class="cls-5" x="621.26" y="71.81" width="4.53" height="8.74" transform="translate(1237.72 134.62) rotate(180)"/><rect class="cls-5" x="653.86" y="86.58" width="4.53" height="8.74" transform="translate(1302.93 164.16) rotate(180)"/><rect class="cls-5" x="645.71" y="86.58" width="4.53" height="8.74" transform="translate(1286.63 164.16) rotate(180)"/><rect class="cls-5" x="637.56" y="86.58" width="4.53" height="8.74" transform="translate(1270.33 164.16) rotate(180)"/><rect class="cls-5" x="629.41" y="86.58" width="4.53" height="8.74" transform="translate(1254.02 164.16) rotate(180)"/><rect class="cls-5" x="621.26" y="86.58" width="4.53" height="8.74" transform="translate(1237.72 164.16) rotate(180)"/><rect class="cls-5" x="653.86" y="101.34" width="4.53" height="8.74" transform="translate(1302.93 193.69) rotate(180)"/><rect class="cls-5" x="645.71" y="101.34" width="4.53" height="8.74" transform="translate(1286.63 193.69) rotate(180)"/><rect class="cls-5" x="637.56" y="101.34" width="4.53" height="8.74" transform="translate(1270.33 193.69) rotate(180)"/><rect class="cls-5" x="629.41" y="101.34" width="4.53" height="8.74" transform="translate(1254.02 193.69) rotate(180)"/><rect class="cls-5" x="621.26" y="101.34" width="4.53" height="8.74" transform="translate(1237.72 193.69) rotate(180)"/><rect class="cls-5" x="681.65" y="158.75" width="4.53" height="8.74" transform="translate(1358.51 308.5) rotate(180)"/><rect class="cls-5" x="673.5" y="158.75" width="4.53" height="8.74" transform="translate(1342.21 308.5) rotate(180)"/><rect class="cls-5" x="665.35" y="158.75" width="4.53" height="8.74" transform="translate(1325.9 308.5) rotate(180)"/><rect class="cls-5" x="681.65" y="173.1" width="4.53" height="8.74" transform="translate(1358.51 337.2) rotate(180)"/><rect class="cls-5" x="673.5" y="173.1" width="4.53" height="8.74" transform="translate(1342.21 337.2) rotate(180)"/><rect class="cls-5" x="665.35" y="173.1" width="4.53" height="8.74" transform="translate(1325.9 337.2) rotate(180)"/><rect class="cls-5" x="681.65" y="187.45" width="4.53" height="8.74" transform="translate(1358.51 365.9) rotate(180)"/><rect class="cls-5" x="673.5" y="187.45" width="4.53" height="8.74" transform="translate(1342.21 365.9) rotate(180)"/><rect class="cls-5" x="665.35" y="187.45" width="4.53" height="8.74" transform="translate(1325.9 365.9) rotate(180)"/><rect class="cls-5" x="681.65" y="201.8" width="4.53" height="8.74" transform="translate(1358.51 394.61) rotate(180)"/><rect class="cls-5" x="673.5" y="201.8" width="4.53" height="8.74" transform="translate(1342.21 394.61) rotate(180)"/><rect class="cls-5" x="665.35" y="201.8" width="4.53" height="8.74" transform="translate(1325.9 394.61) rotate(180)"/><rect class="cls-5" x="681.65" y="216.15" width="4.53" height="8.74" transform="translate(1358.51 423.31) rotate(180)"/><rect class="cls-5" x="673.5" y="216.15" width="4.53" height="8.74" transform="translate(1342.21 423.31) rotate(180)"/><rect class="cls-5" x="665.35" y="216.15" width="4.53" height="8.74" transform="translate(1325.9 423.31) rotate(180)"/><rect class="cls-5" x="681.65" y="230.51" width="4.53" height="8.74" transform="translate(1358.51 452.01) rotate(180)"/><rect class="cls-5" x="673.5" y="230.51" width="4.53" height="8.74" transform="translate(1342.21 452.01) rotate(180)"/><rect class="cls-5" x="665.35" y="230.51" width="4.53" height="8.74" transform="translate(1325.9 452.01) rotate(180)"/><rect class="cls-5" x="681.65" y="244.86" width="4.53" height="8.74" transform="translate(1358.51 480.71) rotate(180)"/><rect class="cls-5" x="673.5" y="244.86" width="4.53" height="8.74" transform="translate(1342.21 480.71) rotate(180)"/><rect class="cls-5" x="665.35" y="244.86" width="4.53" height="8.74" transform="translate(1325.9 480.71) rotate(180)"/><rect class="cls-5" x="653.86" y="116.11" width="4.53" height="8.74" transform="translate(1302.93 223.22) rotate(180)"/><rect class="cls-5" x="645.71" y="116.11" width="4.53" height="8.74" transform="translate(1286.63 223.22) rotate(180)"/><rect class="cls-5" x="637.56" y="116.11" width="4.53" height="8.74" transform="translate(1270.33 223.22) rotate(180)"/><rect class="cls-5" x="629.41" y="116.11" width="4.53" height="8.74" transform="translate(1254.02 223.22) rotate(180)"/><rect class="cls-5" x="621.26" y="116.11" width="4.53" height="8.74" transform="translate(1237.72 223.22) rotate(180)"/><rect class="cls-5" x="653.86" y="130.88" width="4.53" height="8.74" transform="translate(1302.93 252.76) rotate(180)"/><rect class="cls-5" x="645.71" y="130.88" width="4.53" height="8.74" transform="translate(1286.63 252.76) rotate(180)"/><rect class="cls-5" x="637.56" y="130.88" width="4.53" height="8.74" transform="translate(1270.33 252.76) rotate(180)"/><rect class="cls-5" x="629.41" y="130.88" width="4.53" height="8.74" transform="translate(1254.02 252.76) rotate(180)"/><rect class="cls-5" x="621.26" y="130.88" width="4.53" height="8.74" transform="translate(1237.72 252.76) rotate(180)"/><rect class="cls-5" x="653.86" y="145.65" width="4.53" height="8.74" transform="translate(1302.93 282.29) rotate(180)"/><rect class="cls-5" x="645.71" y="145.65" width="4.53" height="8.74" transform="translate(1286.63 282.29) rotate(180)"/><rect class="cls-5" x="637.56" y="145.65" width="4.53" height="8.74" transform="translate(1270.33 282.29) rotate(180)"/><rect class="cls-5" x="629.41" y="145.65" width="4.53" height="8.74" transform="translate(1254.02 282.29) rotate(180)"/><rect class="cls-5" x="621.26" y="145.65" width="4.53" height="8.74" transform="translate(1237.72 282.29) rotate(180)"/><rect class="cls-5" x="653.86" y="160.41" width="4.53" height="8.74" transform="translate(1302.93 311.83) rotate(180)"/><rect class="cls-5" x="645.71" y="160.41" width="4.53" height="8.74" transform="translate(1286.63 311.83) rotate(180)"/><rect class="cls-5" x="637.56" y="160.41" width="4.53" height="8.74" transform="translate(1270.33 311.83) rotate(180)"/><rect class="cls-5" x="629.41" y="160.41" width="4.53" height="8.74" transform="translate(1254.02 311.83) rotate(180)"/><rect class="cls-5" x="621.26" y="160.41" width="4.53" height="8.74" transform="translate(1237.72 311.83) rotate(180)"/><rect class="cls-5" x="653.86" y="175.18" width="4.53" height="8.74" transform="translate(1302.93 341.36) rotate(180)"/><rect class="cls-5" x="645.71" y="175.18" width="4.53" height="8.74" transform="translate(1286.63 341.36) rotate(180)"/><rect class="cls-5" x="637.56" y="175.18" width="4.53" height="8.74" transform="translate(1270.33 341.36) rotate(180)"/><rect class="cls-5" x="629.41" y="175.18" width="4.53" height="8.74" transform="translate(1254.02 341.36) rotate(180)"/><rect class="cls-5" x="621.26" y="175.18" width="4.53" height="8.74" transform="translate(1237.72 341.36) rotate(180)"/><rect class="cls-5" x="653.86" y="189.95" width="4.53" height="8.74" transform="translate(1302.93 370.9) rotate(180)"/><rect class="cls-5" x="645.71" y="189.95" width="4.53" height="8.74" transform="translate(1286.63 370.9) rotate(180)"/><rect class="cls-5" x="637.56" y="189.95" width="4.53" height="8.74" transform="translate(1270.33 370.9) rotate(180)"/><rect class="cls-5" x="629.41" y="189.95" width="4.53" height="8.74" transform="translate(1254.02 370.9) rotate(180)"/><rect class="cls-5" x="621.26" y="189.95" width="4.53" height="8.74" transform="translate(1237.72 370.9) rotate(180)"/><rect class="cls-5" x="653.86" y="204.72" width="4.53" height="8.74" transform="translate(1302.93 400.43) rotate(180)"/><rect class="cls-5" x="645.71" y="204.72" width="4.53" height="8.74" transform="translate(1286.63 400.43) rotate(180)"/><rect class="cls-5" x="637.56" y="204.72" width="4.53" height="8.74" transform="translate(1270.33 400.43) rotate(180)"/><rect class="cls-5" x="629.41" y="204.72" width="4.53" height="8.74" transform="translate(1254.02 400.43) rotate(180)"/><rect class="cls-5" x="621.26" y="204.72" width="4.53" height="8.74" transform="translate(1237.72 400.43) rotate(180)"/><rect class="cls-5" x="653.86" y="219.48" width="4.53" height="8.74" transform="translate(1302.93 429.97) rotate(180)"/><rect class="cls-5" x="645.71" y="219.48" width="4.53" height="8.74" transform="translate(1286.63 429.97) rotate(180)"/><rect class="cls-5" x="637.56" y="219.48" width="4.53" height="8.74" transform="translate(1270.33 429.97) rotate(180)"/><rect class="cls-5" x="629.41" y="219.48" width="4.53" height="8.74" transform="translate(1254.02 429.97) rotate(180)"/><rect class="cls-5" x="621.26" y="219.48" width="4.53" height="8.74" transform="translate(1237.72 429.97) rotate(180)"/><rect class="cls-5" x="653.86" y="234.25" width="4.53" height="8.74" transform="translate(1302.93 459.5) rotate(180)"/><rect class="cls-5" x="645.71" y="234.25" width="4.53" height="8.74" transform="translate(1286.63 459.5) rotate(180)"/><rect class="cls-5" x="637.56" y="234.25" width="4.53" height="8.74" transform="translate(1270.33 459.5) rotate(180)"/><rect class="cls-5" x="629.41" y="234.25" width="4.53" height="8.74" transform="translate(1254.02 459.5) rotate(180)"/><rect class="cls-5" x="621.26" y="234.25" width="4.53" height="8.74" transform="translate(1237.72 459.5) rotate(180)"/><rect class="cls-5" x="653.86" y="249.43" width="4.53" height="8.74" transform="translate(1302.93 489.87) rotate(180)"/><rect class="cls-5" x="645.71" y="249.43" width="4.53" height="8.74" transform="translate(1286.63 489.87) rotate(180)"/><rect class="cls-5" x="637.56" y="249.43" width="4.53" height="8.74" transform="translate(1270.33 489.87) rotate(180)"/><rect class="cls-5" x="629.41" y="249.43" width="4.53" height="8.74" transform="translate(1254.02 489.87) rotate(180)"/><rect class="cls-5" x="621.26" y="249.43" width="4.53" height="8.74" transform="translate(1237.72 489.87) rotate(180)"/><line class="cls-5" x1="652.48" y1="77.16" x2="652.48" y2="255.2"/><line class="cls-5" x1="583.24" y1="85.48" x2="583.24" y2="252.7"/><line class="cls-5" x1="574.38" y1="85.48" x2="574.38" y2="252.7"/><line class="cls-5" x1="565.52" y1="85.48" x2="565.52" y2="252.7"/><line class="cls-5" x1="556.66" y1="85.48" x2="556.66" y2="252.7"/><line class="cls-5" x1="547.8" y1="102.12" x2="547.8" y2="252.7"/><line class="cls-5" x1="538.93" y1="102.12" x2="538.93" y2="252.7"/><line class="cls-5" x1="530.07" y1="102.12" x2="530.07" y2="252.7"/><rect class="cls-5" x="408.58" y="131.09" width="14.51" height="4.99" transform="translate(822.35 249.43) rotate(180)"/><rect class="cls-5" x="408.58" y="139.82" width="14.51" height="4.99" transform="translate(822.35 266.9) rotate(180)"/><rect class="cls-5" x="408.58" y="148.56" width="14.51" height="4.99" transform="translate(822.35 284.37) rotate(180)"/><rect class="cls-5" x="408.58" y="157.29" width="14.51" height="4.99" transform="translate(822.35 301.84) rotate(180)"/><rect class="cls-5" x="408.58" y="166.03" width="14.51" height="4.99" transform="translate(822.35 319.32) rotate(180)"/><rect class="cls-5" x="408.58" y="174.77" width="14.51" height="4.99" transform="translate(822.35 336.79) rotate(180)"/><rect class="cls-5" x="408.58" y="183.5" width="14.51" height="4.99" transform="translate(822.35 354.26) rotate(180)"/><rect class="cls-5" x="408.58" y="192.24" width="14.51" height="4.99" transform="translate(822.35 371.73) rotate(180)"/><rect class="cls-5" x="408.58" y="200.97" width="14.51" height="4.99" transform="translate(822.35 389.2) rotate(180)"/><rect class="cls-5" x="408.58" y="209.71" width="14.51" height="4.99" transform="translate(822.35 406.67) rotate(180)"/><rect class="cls-5" x="408.58" y="218.44" width="14.51" height="4.99" transform="translate(822.35 424.14) rotate(180)"/><rect class="cls-5" x="408.58" y="227.18" width="14.51" height="4.99" transform="translate(822.35 441.61) rotate(180)"/><rect class="cls-5" x="408.58" y="235.91" width="14.51" height="4.99" transform="translate(822.35 459.08) rotate(180)"/><rect class="cls-5" x="408.58" y="244.65" width="14.51" height="4.99" transform="translate(822.35 476.55) rotate(180)"/><rect class="cls-5" x="408.58" y="253.39" width="14.51" height="4.99" transform="translate(822.35 494.03) rotate(180)"/><rect class="cls-5" x="408.58" y="262.12" width="14.51" height="4.99" transform="translate(822.35 511.5) rotate(180)"/><rect class="cls-5" x="408.58" y="270.86" width="14.51" height="4.99" transform="translate(822.35 528.97) rotate(180)"/><rect class="cls-5" x="427.88" y="131.09" width="14.51" height="4.99" transform="translate(860.95 249.43) rotate(180)"/><rect class="cls-5" x="427.88" y="139.82" width="14.51" height="4.99" transform="translate(860.95 266.9) rotate(180)"/><rect class="cls-5" x="427.88" y="148.56" width="14.51" height="4.99" transform="translate(860.95 284.37) rotate(180)"/><rect class="cls-5" x="427.88" y="157.29" width="14.51" height="4.99" transform="translate(860.95 301.84) rotate(180)"/><rect class="cls-5" x="427.88" y="166.03" width="14.51" height="4.99" transform="translate(860.95 319.32) rotate(180)"/><rect class="cls-5" x="427.88" y="174.77" width="14.51" height="4.99" transform="translate(860.95 336.79) rotate(180)"/><rect class="cls-5" x="427.88" y="183.5" width="14.51" height="4.99" transform="translate(860.95 354.26) rotate(180)"/><rect class="cls-5" x="427.88" y="192.24" width="14.51" height="4.99" transform="translate(860.95 371.73) rotate(180)"/><rect class="cls-5" x="427.88" y="200.97" width="14.51" height="4.99" transform="translate(860.95 389.2) rotate(180)"/><rect class="cls-5" x="427.88" y="209.71" width="14.51" height="4.99" transform="translate(860.95 406.67) rotate(180)"/><rect class="cls-5" x="427.88" y="218.44" width="14.51" height="4.99" transform="translate(860.95 424.14) rotate(180)"/><rect class="cls-5" x="427.88" y="227.18" width="14.51" height="4.99" transform="translate(860.95 441.61) rotate(180)"/><rect class="cls-5" x="427.88" y="235.91" width="14.51" height="4.99" transform="translate(860.95 459.08) rotate(180)"/><rect class="cls-5" x="427.88" y="244.65" width="14.51" height="4.99" transform="translate(860.95 476.55) rotate(180)"/><rect class="cls-5" x="427.88" y="253.39" width="14.51" height="4.99" transform="translate(860.95 494.03) rotate(180)"/><rect class="cls-5" x="427.88" y="262.12" width="14.51" height="4.99" transform="translate(860.95 511.5) rotate(180)"/><rect class="cls-5" x="427.88" y="270.86" width="14.51" height="4.99" transform="translate(860.95 528.97) rotate(180)"/><rect class="cls-5" x="447.18" y="131.09" width="14.51" height="4.99" transform="translate(899.55 249.43) rotate(180)"/><rect class="cls-5" x="447.18" y="139.82" width="14.51" height="4.99" transform="translate(899.55 266.9) rotate(180)"/><rect class="cls-5" x="447.18" y="148.56" width="14.51" height="4.99" transform="translate(899.55 284.37) rotate(180)"/><rect class="cls-5" x="447.18" y="157.29" width="14.51" height="4.99" transform="translate(899.55 301.84) rotate(180)"/><rect class="cls-5" x="447.18" y="166.03" width="14.51" height="4.99" transform="translate(899.55 319.32) rotate(180)"/><rect class="cls-5" x="447.18" y="174.77" width="14.51" height="4.99" transform="translate(899.55 336.79) rotate(180)"/><rect class="cls-5" x="447.18" y="183.5" width="14.51" height="4.99" transform="translate(899.55 354.26) rotate(180)"/><rect class="cls-5" x="447.18" y="192.24" width="14.51" height="4.99" transform="translate(899.55 371.73) rotate(180)"/><rect class="cls-5" x="447.18" y="200.97" width="14.51" height="4.99" transform="translate(899.55 389.2) rotate(180)"/><rect class="cls-5" x="447.18" y="209.71" width="14.51" height="4.99" transform="translate(899.55 406.67) rotate(180)"/><rect class="cls-5" x="447.18" y="218.44" width="14.51" height="4.99" transform="translate(899.55 424.14) rotate(180)"/><rect class="cls-5" x="447.18" y="227.18" width="14.51" height="4.99" transform="translate(899.55 441.61) rotate(180)"/><rect class="cls-5" x="447.18" y="235.91" width="14.51" height="4.99" transform="translate(899.55 459.08) rotate(180)"/><rect class="cls-5" x="447.18" y="244.65" width="14.51" height="4.99" transform="translate(899.55 476.55) rotate(180)"/><rect class="cls-5" x="447.18" y="253.39" width="14.51" height="4.99" transform="translate(899.55 494.03) rotate(180)"/><rect class="cls-5" x="447.18" y="262.12" width="14.51" height="4.99" transform="translate(899.55 511.5) rotate(180)"/><rect class="cls-5" x="447.18" y="270.86" width="14.51" height="4.99" transform="translate(899.55 528.97) rotate(180)"/><rect class="cls-5" x="484.54" y="228.43" width="26.58" height="13.73" transform="translate(986.34 452.84) rotate(180)"/><rect class="cls-5" x="490.87" y="204.3" width="13.92" height="24.13" transform="translate(986.34 414.99) rotate(180)"/><line class="cls-5" x1="607.43" y1="135.69" x2="607.43" y2="254.87"/><line class="cls-5" x1="454.74" y1="122.63" x2="519.29" y2="122.63"/><line class="cls-5" x1="454.74" y1="129.74" x2="519.29" y2="129.74"/><rect class="cls-5" x="515.88" y="152.81" width="9.85" height="7.11" transform="translate(1032.29 294.99) rotate(180)"/><rect class="cls-5" x="503.74" y="152.81" width="9.85" height="7.11" transform="translate(1008 294.99) rotate(180)"/><rect class="cls-5" x="491.59" y="152.81" width="9.85" height="7.11" transform="translate(983.71 294.99) rotate(180)"/><rect class="cls-5" x="479.45" y="152.81" width="9.85" height="7.11" transform="translate(959.42 294.99) rotate(180)"/><rect class="cls-5" x="467.31" y="152.81" width="9.85" height="7.11" transform="translate(935.14 294.99) rotate(180)"/><rect class="cls-5" x="515.88" y="163.83" width="9.85" height="7.11" transform="translate(1032.29 317.03) rotate(180)"/><rect class="cls-5" x="503.74" y="163.83" width="9.85" height="7.11" transform="translate(1008 317.03) rotate(180)"/><rect class="cls-5" x="491.59" y="163.83" width="9.85" height="7.11" transform="translate(983.71 317.03) rotate(180)"/><rect class="cls-5" x="479.45" y="163.83" width="9.85" height="7.11" transform="translate(959.42 317.03) rotate(180)"/><rect class="cls-5" x="467.31" y="163.83" width="9.85" height="7.11" transform="translate(935.14 317.03) rotate(180)"/><rect class="cls-5" x="515.88" y="174.85" width="9.85" height="7.11" transform="translate(1032.29 339.07) rotate(180)"/><rect class="cls-5" x="503.74" y="174.85" width="9.85" height="7.11" transform="translate(1008 339.07) rotate(180)"/><rect class="cls-5" x="491.59" y="174.85" width="9.85" height="7.11" transform="translate(983.71 339.07) rotate(180)"/><rect class="cls-5" x="479.45" y="174.85" width="9.85" height="7.11" transform="translate(959.42 339.07) rotate(180)"/><rect class="cls-5" x="467.31" y="174.85" width="9.85" height="7.11" transform="translate(935.14 339.07) rotate(180)"/><rect class="cls-5" x="515.88" y="194.76" width="9.85" height="7.11" transform="translate(1032.29 378.89) rotate(180)"/><rect class="cls-5" x="503.74" y="194.76" width="9.85" height="7.11" transform="translate(1008 378.89) rotate(180)"/><rect class="cls-5" x="491.59" y="194.76" width="9.85" height="7.11" transform="translate(983.71 378.89) rotate(180)"/><rect class="cls-5" x="479.45" y="194.76" width="9.85" height="7.11" transform="translate(959.42 378.89) rotate(180)"/><rect class="cls-5" x="467.31" y="194.76" width="9.85" height="7.11" transform="translate(935.14 378.89) rotate(180)"/><line class="cls-5" x1="523.23" y1="109.47" x2="588.07" y2="109.47"/><line class="cls-5" x1="523.23" y1="121.95" x2="588.07" y2="121.95"/><line class="cls-5" x1="523.23" y1="134.44" x2="588.07" y2="134.44"/><line class="cls-5" x1="523.23" y1="146.92" x2="588.07" y2="146.92"/><line class="cls-5" x1="523.23" y1="159.41" x2="588.07" y2="159.41"/><line class="cls-5" x1="523.23" y1="171.89" x2="588.07" y2="171.89"/><line class="cls-5" x1="523.23" y1="184.38" x2="588.07" y2="184.38"/><line class="cls-5" x1="523.23" y1="196.87" x2="588.07" y2="196.87"/><line class="cls-5" x1="523.23" y1="209.35" x2="588.07" y2="209.35"/><line class="cls-5" x1="523.23" y1="221.84" x2="588.07" y2="221.84"/><line class="cls-5" x1="523.23" y1="234.32" x2="588.07" y2="234.32"/><line class="cls-5" x1="523.23" y1="246.81" x2="588.07" y2="246.81"/><line class="cls-5" x1="556.1" y1="97.58" x2="588.07" y2="97.58"/></g><path class="cls-6" d="M85.86,340c0,28-16.56,50.68-37,50.68S11.9,368,11.9,340s16.56-124.16,37-124.16S85.86,312,85.86,340Z" transform="translate(-9.32 -17.74)"/><polygon class="cls-2" points="60.29 336.88 49.1 341.02 51.34 334.28 45.99 342.17 40.65 344.15 40.26 322.01 59.72 296.17 49.29 306.6 51.05 299.35 46.07 309.82 40.16 315.73 39.56 281.15 37.44 331.58 19.01 312.05 29.13 325.81 19.59 324.75 31.38 328.87 37.22 336.81 36.2 361.13 29.4 356.51 35.99 366.16 32.87 437.79 42.31 437.79 40.71 347.68 60.29 336.88"/><path class="cls-2" d="M69.22,299a9.46,9.46,0,0,1-1.51,5.89A9.48,9.48,0,0,1,62.5,308,9.46,9.46,0,0,1,64,302.14,9.41,9.41,0,0,1,69.22,299Z" transform="translate(-9.32 -17.74)"/><path class="cls-2" d="M80.37,314.66a8,8,0,0,1-6.73,9,8,8,0,0,1,6.73-9Z" transform="translate(-9.32 -17.74)"/><path class="cls-2" d="M80.36,345.14a9.42,9.42,0,0,1-3.41,5,9.45,9.45,0,0,1-6,1.2,9.41,9.41,0,0,1,3.41-5A9.41,9.41,0,0,1,80.36,345.14Z" transform="translate(-9.32 -17.74)"/><path class="cls-2" d="M19.16,345.14a9.44,9.44,0,0,0,3.4,5,9.47,9.47,0,0,0,6,1.2,9.41,9.41,0,0,0-3.41-5A9.41,9.41,0,0,0,19.16,345.14Z" transform="translate(-9.32 -17.74)"/><path class="cls-2" d="M67.49,332.49A9.43,9.43,0,0,1,66,338.38a9.44,9.44,0,0,1-5.21,3.14,8,8,0,0,1,6.73-9Z" transform="translate(-9.32 -17.74)"/><path class="cls-2" d="M64.6,282a9.5,9.5,0,0,1-1.51,5.9A9.48,9.48,0,0,1,57.88,291a9.5,9.5,0,0,1,1.51-5.9A9.48,9.48,0,0,1,64.6,282Z" transform="translate(-9.32 -17.74)"/><path class="cls-2" d="M58,295a9.48,9.48,0,0,1-1.51,5.89A9.48,9.48,0,0,1,51.24,304a9.46,9.46,0,0,1,1.51-5.89A9.41,9.41,0,0,1,58,295Z" transform="translate(-9.32 -17.74)"/><path class="cls-2" d="M73.73,285.5a9.44,9.44,0,0,1-1.52,5.89A9.48,9.48,0,0,1,67,294.53a8,8,0,0,1,6.73-9Z" transform="translate(-9.32 -17.74)"/><path class="cls-2" d="M22.5,285.5A9.44,9.44,0,0,0,24,291.39a9.44,9.44,0,0,0,5.21,3.14,9.43,9.43,0,0,0-1.52-5.89A9.41,9.41,0,0,0,22.5,285.5Z" transform="translate(-9.32 -17.74)"/><path class="cls-2" d="M66.05,266.09A9.44,9.44,0,0,1,64.53,272a9.48,9.48,0,0,1-5.21,3.14,9.43,9.43,0,0,1,1.52-5.89A9.38,9.38,0,0,1,66.05,266.09Z" transform="translate(-9.32 -17.74)"/><path class="cls-2" d="M62.78,249.22a8,8,0,0,1-4.24,10.43,8,8,0,0,1,4.24-10.43Z" transform="translate(-9.32 -17.74)"/><path class="cls-2" d="M39.4,244.81a9.41,9.41,0,0,1,4.08,4.51,9.47,9.47,0,0,1-.24,6.08,8,8,0,0,1-3.84-10.59Z" transform="translate(-9.32 -17.74)"/><path class="cls-2" d="M51.45,265.05a14.93,14.93,0,0,1,.83,5.68,15.1,15.1,0,0,1-1.47,5.56,14.33,14.33,0,0,1,.64-11.24Z" transform="translate(-9.32 -17.74)"/><path class="cls-2" d="M49.73,235a8,8,0,0,1-.65,11.24A8,8,0,0,1,49.73,235Z" transform="translate(-9.32 -17.74)"/><path class="cls-2" d="M25.25,299a9.43,9.43,0,0,0,1.52,5.89A9.48,9.48,0,0,0,32,308a9.43,9.43,0,0,0-1.52-5.89A9.38,9.38,0,0,0,25.25,299Z" transform="translate(-9.32 -17.74)"/><path class="cls-2" d="M18.9,317.48a9.44,9.44,0,0,0,1.52,5.89,9.44,9.44,0,0,0,5.21,3.14,9.43,9.43,0,0,0-1.52-5.89A9.41,9.41,0,0,0,18.9,317.48Z" transform="translate(-9.32 -17.74)"/><path class="cls-2" d="M35.76,324.18a9.43,9.43,0,0,0,1.52,5.89,9.42,9.42,0,0,0,5.21,3.15,9.47,9.47,0,0,0-1.52-5.9A9.48,9.48,0,0,0,35.76,324.18Z" transform="translate(-9.32 -17.74)"/><path class="cls-2" d="M40.37,298.58a8,8,0,0,0,3.86,10.58,9.43,9.43,0,0,0,.23-6.08A9.42,9.42,0,0,0,40.37,298.58Z" transform="translate(-9.32 -17.74)"/><path class="cls-2" d="M28.43,366.71a9.47,9.47,0,0,0,5.75-2,9.47,9.47,0,0,0,2.7-5.45,9.37,9.37,0,0,0-5.74,2A9.41,9.41,0,0,0,28.43,366.71Z" transform="translate(-9.32 -17.74)"/><path class="cls-2" d="M61.19,363a9.46,9.46,0,0,0,3.57,4.93,9.43,9.43,0,0,0,6,1A9.45,9.45,0,0,0,67.19,364,9.47,9.47,0,0,0,61.19,363Z" transform="translate(-9.32 -17.74)"/><path class="cls-2" d="M32.24,282a9.47,9.47,0,0,0,1.52,5.9A9.44,9.44,0,0,0,39,291a9.47,9.47,0,0,0-1.52-5.9A9.48,9.48,0,0,0,32.24,282Z" transform="translate(-9.32 -17.74)"/><path class="cls-2" d="M32.18,267a9.43,9.43,0,0,0,1.52,5.89A9.38,9.38,0,0,0,38.91,276a9.44,9.44,0,0,0-1.52-5.89A9.44,9.44,0,0,0,32.18,267Z" transform="translate(-9.32 -17.74)"/><path class="cls-6" d="M741.56,340c0,28-16.55,50.68-37,50.68s-37-22.69-37-50.68,16.56-124.16,37-124.16S741.56,312,741.56,340Z" transform="translate(-9.32 -17.74)"/><polygon class="cls-2" points="716 336.88 704.8 341.02 707.05 334.28 701.7 342.17 696.35 344.15 695.97 322.01 715.42 296.17 705 306.6 706.76 299.35 701.77 309.82 695.86 315.73 695.27 281.15 693.15 331.58 674.72 312.05 684.84 325.81 675.29 324.75 687.09 328.87 692.93 336.81 691.91 361.13 685.11 356.51 691.7 366.16 688.57 437.79 698.01 437.79 696.41 347.68 716 336.88"/><path class="cls-2" d="M724.93,299a8,8,0,0,1-6.73,9,8,8,0,0,1,6.73-9Z" transform="translate(-9.32 -17.74)"/><path class="cls-2" d="M736.07,314.66a8,8,0,0,1-6.72,9,8,8,0,0,1,6.72-9Z" transform="translate(-9.32 -17.74)"/><path class="cls-2" d="M736.07,345.14a8,8,0,0,1-9.37,6.24,8,8,0,0,1,9.37-6.24Z" transform="translate(-9.32 -17.74)"/><path class="cls-2" d="M674.86,345.14a8,8,0,0,0,9.38,6.24,8,8,0,0,0-9.38-6.24Z" transform="translate(-9.32 -17.74)"/><path class="cls-2" d="M723.2,332.49a8,8,0,0,1-6.73,9,8,8,0,0,1,6.73-9Z" transform="translate(-9.32 -17.74)"/><path class="cls-2" d="M720.31,282a8,8,0,0,1-6.72,9,8,8,0,0,1,6.72-9Z" transform="translate(-9.32 -17.74)"/><path class="cls-2" d="M713.67,295a8,8,0,0,1-6.72,9,8,8,0,0,1,6.72-9Z" transform="translate(-9.32 -17.74)"/><path class="cls-2" d="M729.43,285.5a8,8,0,0,1-6.72,9,8,8,0,0,1,6.72-9Z" transform="translate(-9.32 -17.74)"/><path class="cls-2" d="M678.21,285.5a8,8,0,0,0,6.72,9,8,8,0,0,0-6.72-9Z" transform="translate(-9.32 -17.74)"/><path class="cls-2" d="M721.75,266.09a8,8,0,0,1-6.72,9,8,8,0,0,1,6.72-9Z" transform="translate(-9.32 -17.74)"/><path class="cls-2" d="M718.49,249.22a8,8,0,0,1-4.24,10.43,8,8,0,0,1,4.24-10.43Z" transform="translate(-9.32 -17.74)"/><path class="cls-2" d="M695.11,244.81A8.05,8.05,0,0,1,699,255.4a8,8,0,0,1-3.84-10.59Z" transform="translate(-9.32 -17.74)"/><path class="cls-2" d="M706,265a8,8,0,0,1-.65,11.24A8,8,0,0,1,706,265Z" transform="translate(-9.32 -17.74)"/><path class="cls-2" d="M705.43,235a8,8,0,0,1-.64,11.24,8,8,0,0,1,.64-11.24Z" transform="translate(-9.32 -17.74)"/><path class="cls-2" d="M681,299a8,8,0,0,0,6.73,9,8,8,0,0,0-6.73-9Z" transform="translate(-9.32 -17.74)"/><path class="cls-2" d="M674.61,317.48a8,8,0,0,0,6.72,9,8,8,0,0,0-6.72-9Z" transform="translate(-9.32 -17.74)"/><path class="cls-2" d="M691.47,324.18a8.06,8.06,0,0,0,6.72,9,8,8,0,0,0-6.72-9Z" transform="translate(-9.32 -17.74)"/><path class="cls-2" d="M696.08,298.58a8,8,0,0,0,3.86,10.58,8,8,0,0,0-3.86-10.58Z" transform="translate(-9.32 -17.74)"/><path class="cls-2" d="M684.14,366.71a8,8,0,0,0,8.45-7.44,8,8,0,0,0-8.45,7.44Z" transform="translate(-9.32 -17.74)"/><path class="cls-2" d="M716.9,363a8,8,0,0,0,9.57,5.94A8.05,8.05,0,0,0,716.9,363Z" transform="translate(-9.32 -17.74)"/><path class="cls-2" d="M688,282a8,8,0,0,0,6.72,9,8,8,0,0,0-6.72-9Z" transform="translate(-9.32 -17.74)"/><path class="cls-2" d="M687.89,267a8,8,0,0,0,6.72,9,8,8,0,0,0-6.72-9Z" transform="translate(-9.32 -17.74)"/><path class="cls-6" d="M694.86,362.59c0,22.51-13.31,40.75-29.74,40.75s-29.74-18.24-29.74-40.75,13.32-99.87,29.74-99.87S694.86,340.08,694.86,362.59Z" transform="translate(-9.32 -17.74)"/><polygon class="cls-2" points="672.48 356.63 663.47 359.96 665.28 354.54 660.97 360.88 656.68 362.47 656.37 344.67 672.01 323.89 663.63 332.27 665.05 326.44 661.04 334.86 656.28 339.62 655.8 311.81 654.1 352.37 639.27 336.66 647.42 347.73 639.74 346.88 649.22 350.19 653.92 356.57 653.1 376.13 647.63 372.42 652.93 380.18 650.42 437.79 658.01 437.79 656.73 365.31 672.48 356.63"/><path class="cls-2" d="M681.48,329.63a6.47,6.47,0,0,1-5.41,7.27,6.47,6.47,0,0,1,5.41-7.27Z" transform="translate(-9.32 -17.74)"/><path class="cls-2" d="M690.45,342.23a6.47,6.47,0,0,1-5.41,7.26,6.45,6.45,0,0,1,5.41-7.26Z" transform="translate(-9.32 -17.74)"/><path class="cls-2" d="M690.44,366.75a6.46,6.46,0,0,1-7.54,5,6.46,6.46,0,0,1,7.54-5Z" transform="translate(-9.32 -17.74)"/><path class="cls-2" d="M641.22,366.75a6.46,6.46,0,0,0,7.53,5,6.44,6.44,0,0,0-7.53-5Z" transform="translate(-9.32 -17.74)"/><path class="cls-2" d="M680.09,356.57a6.45,6.45,0,0,1-5.41,7.26,6.45,6.45,0,0,1,5.41-7.26Z" transform="translate(-9.32 -17.74)"/><path class="cls-2" d="M677.77,315.93a6.47,6.47,0,0,1-5.41,7.27,6.47,6.47,0,0,1,5.41-7.27Z" transform="translate(-9.32 -17.74)"/><path class="cls-2" d="M672.43,326.38a7.63,7.63,0,0,1-1.22,4.74,7.53,7.53,0,0,1-4.19,2.52,6.47,6.47,0,0,1,5.41-7.26Z" transform="translate(-9.32 -17.74)"/><path class="cls-2" d="M685.11,318.77A6.47,6.47,0,0,1,679.7,326a6.47,6.47,0,0,1,5.41-7.27Z" transform="translate(-9.32 -17.74)"/><path class="cls-2" d="M643.91,318.77a6.45,6.45,0,0,0,5.4,7.27,6.45,6.45,0,0,0-5.4-7.27Z" transform="translate(-9.32 -17.74)"/><path class="cls-2" d="M678.93,303.16a6.45,6.45,0,0,1-5.41,7.26,6.47,6.47,0,0,1,5.41-7.26Z" transform="translate(-9.32 -17.74)"/><path class="cls-2" d="M676.3,289.59a6.43,6.43,0,0,1-3.41,8.39,6.47,6.47,0,0,1,3.41-8.39Z" transform="translate(-9.32 -17.74)"/><path class="cls-2" d="M657.5,286.05a6.47,6.47,0,0,1,3.09,8.51,6.45,6.45,0,0,1-3.09-8.51Z" transform="translate(-9.32 -17.74)"/><path class="cls-2" d="M666.27,302.27a6.46,6.46,0,0,1-.52,9,6.46,6.46,0,0,1,.52-9Z" transform="translate(-9.32 -17.74)"/><path class="cls-2" d="M665.8,278.12a6.46,6.46,0,0,1-.52,9,6.46,6.46,0,0,1,.52-9Z" transform="translate(-9.32 -17.74)"/><path class="cls-2" d="M646.12,329.63a6.47,6.47,0,0,0,5.41,7.27,6.47,6.47,0,0,0-5.41-7.27Z" transform="translate(-9.32 -17.74)"/><path class="cls-2" d="M641,344.49a6.47,6.47,0,0,0,5.41,7.27,6.47,6.47,0,0,0-5.41-7.27Z" transform="translate(-9.32 -17.74)"/><path class="cls-2" d="M654.57,349.89a6.45,6.45,0,0,0,5.41,7.26,6.45,6.45,0,0,0-5.41-7.26Z" transform="translate(-9.32 -17.74)"/><path class="cls-2" d="M658.28,329.3a6.45,6.45,0,0,0,3.1,8.5,6.45,6.45,0,0,0-3.1-8.5Z" transform="translate(-9.32 -17.74)"/><path class="cls-2" d="M648.68,384.09a6.45,6.45,0,0,0,6.79-6,6.45,6.45,0,0,0-6.79,6Z" transform="translate(-9.32 -17.74)"/><path class="cls-2" d="M675,381.09a6.46,6.46,0,0,0,7.7,4.77,6.46,6.46,0,0,0-7.7-4.77Z" transform="translate(-9.32 -17.74)"/><path class="cls-2" d="M651.74,315.93a6.47,6.47,0,0,0,5.41,7.27,6.47,6.47,0,0,0-5.41-7.27Z" transform="translate(-9.32 -17.74)"/><path class="cls-2" d="M651.69,303.86a6.45,6.45,0,0,0,5.41,7.26,6.45,6.45,0,0,0-5.41-7.26Z" transform="translate(-9.32 -17.74)"/><path class="cls-6" d="M119.06,362.59c0,22.51-13.31,40.75-29.74,40.75S59.58,385.1,59.58,362.59s13.32-99.87,29.74-99.87S119.06,340.08,119.06,362.59Z" transform="translate(-9.32 -17.74)"/><polygon class="cls-2" points="96.68 356.63 87.67 359.96 89.48 354.54 85.17 360.88 80.88 362.47 80.57 344.67 96.21 323.89 87.83 332.27 89.25 326.44 85.24 334.86 80.48 339.62 80 311.81 78.3 352.37 63.47 336.66 71.62 347.73 63.94 346.88 73.42 350.19 78.12 356.57 77.3 376.13 71.83 372.42 77.13 380.18 74.62 437.79 82.21 437.79 80.92 365.31 96.68 356.63"/><path class="cls-2" d="M105.68,329.63a6.45,6.45,0,0,1-5.4,7.27,6.45,6.45,0,0,1,5.4-7.27Z" transform="translate(-9.32 -17.74)"/><path class="cls-2" d="M114.65,342.23a6.47,6.47,0,0,1-5.41,7.26,6.45,6.45,0,0,1,5.41-7.26Z" transform="translate(-9.32 -17.74)"/><path class="cls-2" d="M114.64,366.75a6.46,6.46,0,0,1-7.53,5,6.44,6.44,0,0,1,7.53-5Z" transform="translate(-9.32 -17.74)"/><path class="cls-2" d="M65.42,366.75a7.6,7.6,0,0,0,2.74,4.05,7.63,7.63,0,0,0,4.79,1,7.61,7.61,0,0,0-2.74-4.06A7.59,7.59,0,0,0,65.42,366.75Z" transform="translate(-9.32 -17.74)"/><path class="cls-2" d="M104.29,356.57a6.45,6.45,0,0,1-5.41,7.26,6.45,6.45,0,0,1,5.41-7.26Z" transform="translate(-9.32 -17.74)"/><path class="cls-2" d="M102,315.93a6.47,6.47,0,0,1-5.41,7.27,6.47,6.47,0,0,1,5.41-7.27Z" transform="translate(-9.32 -17.74)"/><path class="cls-2" d="M96.63,326.38a7.63,7.63,0,0,1-1.22,4.74,7.53,7.53,0,0,1-4.19,2.52,6.47,6.47,0,0,1,5.41-7.26Z" transform="translate(-9.32 -17.74)"/><path class="cls-2" d="M109.31,318.77A6.47,6.47,0,0,1,103.9,326a6.47,6.47,0,0,1,5.41-7.27Z" transform="translate(-9.32 -17.74)"/><path class="cls-2" d="M68.11,318.77a6.45,6.45,0,0,0,5.4,7.27,6.45,6.45,0,0,0-5.4-7.27Z" transform="translate(-9.32 -17.74)"/><path class="cls-2" d="M103.13,303.16a6.45,6.45,0,0,1-5.41,7.26,6.47,6.47,0,0,1,5.41-7.26Z" transform="translate(-9.32 -17.74)"/><path class="cls-2" d="M100.5,289.59A6.43,6.43,0,0,1,97.09,298a6.47,6.47,0,0,1,3.41-8.39Z" transform="translate(-9.32 -17.74)"/><path class="cls-2" d="M81.7,286.05a6.47,6.47,0,0,1,3.09,8.51,6.45,6.45,0,0,1-3.09-8.51Z" transform="translate(-9.32 -17.74)"/><path class="cls-2" d="M90.47,302.27a6.46,6.46,0,0,1-.52,9,6.46,6.46,0,0,1,.52-9Z" transform="translate(-9.32 -17.74)"/><path class="cls-2" d="M90,278.12a6.46,6.46,0,0,1-.52,9,6.46,6.46,0,0,1,.52-9Z" transform="translate(-9.32 -17.74)"/><path class="cls-2" d="M70.32,329.63a6.47,6.47,0,0,0,5.41,7.27,6.47,6.47,0,0,0-5.41-7.27Z" transform="translate(-9.32 -17.74)"/><path class="cls-2" d="M65.21,344.49a6.47,6.47,0,0,0,5.41,7.27,6.47,6.47,0,0,0-5.41-7.27Z" transform="translate(-9.32 -17.74)"/><path class="cls-2" d="M78.77,349.89a6.45,6.45,0,0,0,5.41,7.26,6.45,6.45,0,0,0-5.41-7.26Z" transform="translate(-9.32 -17.74)"/><path class="cls-2" d="M82.48,329.3a6.45,6.45,0,0,0,3.1,8.5,6.45,6.45,0,0,0-3.1-8.5Z" transform="translate(-9.32 -17.74)"/><path class="cls-2" d="M72.88,384.09a6.45,6.45,0,0,0,6.79-6,6.45,6.45,0,0,0-6.79,6Z" transform="translate(-9.32 -17.74)"/><path class="cls-2" d="M99.22,381.09a6.47,6.47,0,0,0,7.7,4.77,6.46,6.46,0,0,0-7.7-4.77Z" transform="translate(-9.32 -17.74)"/><path class="cls-2" d="M75.94,315.93a6.47,6.47,0,0,0,5.41,7.27,6.47,6.47,0,0,0-5.41-7.27Z" transform="translate(-9.32 -17.74)"/><path class="cls-2" d="M75.89,303.86a6.45,6.45,0,0,0,5.41,7.26,6.45,6.45,0,0,0-5.41-7.26Z" transform="translate(-9.32 -17.74)"/><polygon class="cls-7" points="632.4 242.23 114.48 242.23 166.28 172.87 580.61 172.87 632.4 242.23"/><rect class="cls-8" x="121.85" y="248.29" width="503.2" height="189.5"/><rect class="cls-7" x="121.85" y="248.29" width="503.2" height="14.69"/><rect class="cls-9" x="104.45" y="402.59" width="537.98" height="35.2"/><rect class="cls-8" x="104.45" y="248.29" width="17.28" height="189.5"/><rect class="cls-8" x="625.15" y="248.29" width="17.28" height="189.5"/><rect class="cls-7" x="104.45" y="248.29" width="17.28" height="11.72"/><rect class="cls-7" x="625.15" y="248.29" width="17.28" height="11.72"/><path class="cls-7" d="M147,262.55h3.64a13.19,13.19,0,0,1,13.19,13.19V317a0,0,0,0,1,0,0h-30a0,0,0,0,1,0,0V275.74A13.19,13.19,0,0,1,147,262.55Z"/><path class="cls-7" d="M196.92,262.55h3.64a13.19,13.19,0,0,1,13.19,13.19V317a0,0,0,0,1,0,0h-30a0,0,0,0,1,0,0V275.74A13.19,13.19,0,0,1,196.92,262.55Z"/><path class="cls-7" d="M246.84,262.55h3.64a13.19,13.19,0,0,1,13.19,13.19V317a0,0,0,0,1,0,0h-30a0,0,0,0,1,0,0V275.74A13.19,13.19,0,0,1,246.84,262.55Z"/><path class="cls-7" d="M497.5,262.55h3.64a13.19,13.19,0,0,1,13.19,13.19V317a0,0,0,0,1,0,0h-30a0,0,0,0,1,0,0V275.74A13.19,13.19,0,0,1,497.5,262.55Z"/><path class="cls-7" d="M547.42,262.55h3.64a13.19,13.19,0,0,1,13.19,13.19V317a0,0,0,0,1,0,0h-30a0,0,0,0,1,0,0V275.74a13.19,13.19,0,0,1,13.19-13.19Z"/><path class="cls-7" d="M597.33,262.55H601a13.19,13.19,0,0,1,13.19,13.19V317a0,0,0,0,1,0,0h-30a0,0,0,0,1,0,0V275.74A13.19,13.19,0,0,1,597.33,262.55Z"/><path class="cls-7" d="M147,338.47h3.64a13.19,13.19,0,0,1,13.19,13.19v41.28a0,0,0,0,1,0,0h-30a0,0,0,0,1,0,0V351.67A13.19,13.19,0,0,1,147,338.47Z"/><path class="cls-7" d="M196.92,338.47h3.64a13.19,13.19,0,0,1,13.19,13.19v41.28a0,0,0,0,1,0,0h-30a0,0,0,0,1,0,0V351.67A13.19,13.19,0,0,1,196.92,338.47Z"/><path class="cls-7" d="M246.84,338.47h3.64a13.19,13.19,0,0,1,13.19,13.19v41.28a0,0,0,0,1,0,0h-30a0,0,0,0,1,0,0V351.67A13.19,13.19,0,0,1,246.84,338.47Z"/><path class="cls-7" d="M497.5,338.47h3.64a13.19,13.19,0,0,1,13.19,13.19v41.28a0,0,0,0,1,0,0h-30a0,0,0,0,1,0,0V351.67A13.19,13.19,0,0,1,497.5,338.47Z"/><path class="cls-7" d="M547.42,338.47h3.64a13.19,13.19,0,0,1,13.19,13.19v41.28a0,0,0,0,1,0,0h-30a0,0,0,0,1,0,0V351.67A13.19,13.19,0,0,1,547.42,338.47Z"/><path class="cls-7" d="M597.33,338.47H601a13.19,13.19,0,0,1,13.19,13.19v41.28a0,0,0,0,1,0,0h-30a0,0,0,0,1,0,0V351.67A13.19,13.19,0,0,1,597.33,338.47Z"/><rect class="cls-7" x="348.73" y="301.09" width="49.43" height="100.78"/><polygon class="cls-10" points="398.16 295.05 348.73 295.05 348.73 291.22 373.21 280.8 398.16 291.22 398.16 295.05"/><rect class="cls-11" x="253.71" y="403.86" width="239.13" height="33.87"/><line class="cls-8" x1="307.24" y1="409.27" x2="437.76" y2="409.27"/><line class="cls-8" x1="307.24" y1="416.8" x2="437.76" y2="416.8"/><line class="cls-8" x1="307.24" y1="424.33" x2="437.76" y2="424.33"/><line class="cls-8" x1="307.24" y1="431.85" x2="437.76" y2="431.85"/><rect class="cls-8" x="314.3" y="256.17" width="14.08" height="136.87"/><rect class="cls-8" x="311.92" y="256.17" width="18.86" height="6.41"/><rect class="cls-8" x="308.81" y="250.34" width="25.06" height="6.41"/><rect class="cls-8" x="311.92" y="391.54" width="18.86" height="6.41"/><rect class="cls-8" x="308.81" y="397.37" width="25.06" height="6.41"/><rect class="cls-8" x="417.65" y="256.17" width="14.08" height="136.87"/><rect class="cls-8" x="415.26" y="256.17" width="18.86" height="6.41"/><rect class="cls-8" x="412.16" y="250.34" width="25.06" height="6.41"/><rect class="cls-8" x="415.26" y="391.54" width="18.86" height="6.41"/><rect class="cls-8" x="412.16" y="397.37" width="25.06" height="6.41"/><rect class="cls-8" x="253.43" y="196.28" width="49.3" height="54.39"/><rect class="cls-8" x="443.55" y="196.28" width="49.3" height="54.39"/><rect class="cls-8" x="249.36" y="192.12" width="246.69" height="5.52"/><rect class="cls-8" x="254.29" y="226.19" width="238.3" height="24.47"/><path class="cls-8" d="M452.37,234H313.15V205.84l2.71-.58a320.25,320.25,0,0,1,129.62-.81l6.89,1.39Z" transform="translate(-9.32 -17.74)"/><polygon class="cls-8" points="493.99 214.96 252.29 214.96 253.33 218.19 492.95 218.19 493.99 214.96"/><rect class="cls-8" x="253.43" y="218.2" width="239.41" height="8"/><rect class="cls-8" x="253.43" y="252.35" width="49.3" height="149.52"/><rect class="cls-8" x="443.55" y="252.35" width="49.3" height="149.52"/><rect class="cls-7" x="253.43" y="252.35" width="49.3" height="6.94"/><rect class="cls-7" x="443.55" y="252.35" width="49.3" height="6.94"/><rect class="cls-8" x="250.87" y="249.7" width="54.42" height="2.9"/><rect class="cls-8" x="250.87" y="400.88" width="54.42" height="2.9"/><rect class="cls-8" x="440.99" y="249.7" width="54.42" height="2.9"/><rect class="cls-8" x="440.99" y="400.88" width="54.42" height="2.9"/><rect class="cls-8" x="244.64" y="403.86" width="64.91" height="33.87"/><rect class="cls-8" x="436.89" y="403.86" width="62.92" height="33.87"/><polygon class="cls-8" points="650.46 239.43 95.81 239.43 98.2 242.67 648.08 242.67 650.46 239.43"/><polygon class="cls-8" points="650.46 254.16 95.81 254.16 98.2 250.92 648.08 250.92 650.46 254.16"/><rect class="cls-8" x="98.44" y="242.67" width="549.4" height="8"/><path class="cls-6" d="M715.89,455.52c-.44-3.69-3.3-11-7.4-13-4.36-2.18-7.62,2.79-15.39,6.37s-5.76-2.64-13.84-7.46-9.17,1.86-12.43,3.42-5.37-4.31-6.17-6.5c-1.55-4.29-3.37-8-7.4-10.51-6.22-3.93-16.87-3.62-20.16,4-1,2.29-.63,6.49-3.12,7.73-3.73,1.87-13.37-.31-14,5.91a9.22,9.22,0,0,0,1.37,5.65,4.47,4.47,0,0,1,.34,2.12c-.31.93-2.33-1.24-4-.15a7.64,7.64,0,0,0-2.3,2.48Z" transform="translate(-9.32 -17.74)"/><path class="cls-2" d="M642.67,434.05a3.77,3.77,0,0,0,.29,2.27,7.24,7.24,0,0,0,1.32,1.72S644.84,436.07,642.67,434.05Z" transform="translate(-9.32 -17.74)"/><path class="cls-2" d="M632.25,445a3.73,3.73,0,0,0,2.13.84,7.13,7.13,0,0,0,2.14-.32S635.07,444.11,632.25,445Z" transform="translate(-9.32 -17.74)"/><path class="cls-2" d="M622.07,443.62a3.71,3.71,0,0,0,2.13.85,7,7,0,0,0,2.14-.33S624.89,442.71,622.07,443.62Z" transform="translate(-9.32 -17.74)"/><path class="cls-2" d="M630.79,450.18a3.69,3.69,0,0,0,2.29.18,7.18,7.18,0,0,0,1.95-.95S633.21,448.47,630.79,450.18Z" transform="translate(-9.32 -17.74)"/><path class="cls-2" d="M620.45,448.87a3.74,3.74,0,0,0,2.29.17,7,7,0,0,0,2-.94S622.88,447.16,620.45,448.87Z" transform="translate(-9.32 -17.74)"/><path class="cls-2" d="M637.74,450.72a3.74,3.74,0,0,0,2.15-.79,7.2,7.2,0,0,0,1.38-1.68S639.23,448.15,637.74,450.72Z" transform="translate(-9.32 -17.74)"/><path class="cls-2" d="M623.28,454.4a3.74,3.74,0,0,0,2.15-.79,7.27,7.27,0,0,0,1.38-1.67S624.77,451.84,623.28,454.4Z" transform="translate(-9.32 -17.74)"/><path class="cls-2" d="M634.81,435.33a3.71,3.71,0,0,0,1.23,1.93,7,7,0,0,0,1.93,1S637.63,436.24,634.81,435.33Z" transform="translate(-9.32 -17.74)"/><path class="cls-2" d="M655.55,434.41a3.75,3.75,0,0,0-2,1.06,7.12,7.12,0,0,0-1.15,1.84S654.39,437.15,655.55,434.41Z" transform="translate(-9.32 -17.74)"/><path class="cls-2" d="M659.91,441a3.68,3.68,0,0,0-2.27.29,7.24,7.24,0,0,0-1.72,1.32S657.89,443.12,659.91,441Z" transform="translate(-9.32 -17.74)"/><path class="cls-2" d="M659.49,448.39a3.72,3.72,0,0,0-2.07-1,6.91,6.91,0,0,0-2.16.17S656.6,449.1,659.49,448.39Z" transform="translate(-9.32 -17.74)"/><path class="cls-2" d="M654.61,452.38a3.66,3.66,0,0,0-1.57-1.66,6.92,6.92,0,0,0-2.08-.61S651.67,452,654.61,452.38Z" transform="translate(-9.32 -17.74)"/><path class="cls-2" d="M652.05,440.32a3.7,3.7,0,0,0-2,1.06,7,7,0,0,0-1.16,1.83S650.9,443.05,652.05,440.32Z" transform="translate(-9.32 -17.74)"/><path class="cls-2" d="M631.41,438.68a3.69,3.69,0,0,0,1.64,1.6,6.9,6.9,0,0,0,2.1.53S634.37,438.93,631.41,438.68Z" transform="translate(-9.32 -17.74)"/><path class="cls-2" d="M649.37,432.66a3.67,3.67,0,0,0-1.27,1.9,7.18,7.18,0,0,0-.14,2.17S649.67,435.61,649.37,432.66Z" transform="translate(-9.32 -17.74)"/><path class="cls-2" d="M645.53,429.06a3.72,3.72,0,0,0-.31,2.27,7.23,7.23,0,0,0,.84,2S647.1,431.58,645.53,429.06Z" transform="translate(-9.32 -17.74)"/><path class="cls-2" d="M637.2,430.27a3.68,3.68,0,0,0,.77,2.16,7.06,7.06,0,0,0,1.65,1.4S639.75,431.8,637.2,430.27Z" transform="translate(-9.32 -17.74)"/><path class="cls-2" d="M673.59,443.73a2.11,2.11,0,0,0,.17,1.32,4.1,4.1,0,0,0,.76,1A2.46,2.46,0,0,0,673.59,443.73Z" transform="translate(-9.32 -17.74)"/><path class="cls-2" d="M667.53,450.11a2.13,2.13,0,0,0,1.24.49,4,4,0,0,0,1.25-.19A2.47,2.47,0,0,0,667.53,450.11Z" transform="translate(-9.32 -17.74)"/><path class="cls-2" d="M666.69,453.1a2.15,2.15,0,0,0,1.32.11,4.22,4.22,0,0,0,1.14-.55A2.45,2.45,0,0,0,666.69,453.1Z" transform="translate(-9.32 -17.74)"/><path class="cls-2" d="M670.72,453.42A2.16,2.16,0,0,0,672,453a4.09,4.09,0,0,0,.8-1A2.47,2.47,0,0,0,670.72,453.42Z" transform="translate(-9.32 -17.74)"/><path class="cls-2" d="M669,444.48a2.15,2.15,0,0,0,.72,1.12,4,4,0,0,0,1.12.58A2.46,2.46,0,0,0,669,444.48Z" transform="translate(-9.32 -17.74)"/><path class="cls-2" d="M681.06,444a2.14,2.14,0,0,0-1.18.61,4.06,4.06,0,0,0-.67,1.07A2.47,2.47,0,0,0,681.06,444Z" transform="translate(-9.32 -17.74)"/><path class="cls-2" d="M683.6,447.75a2.11,2.11,0,0,0-1.32.17,4,4,0,0,0-1,.77A2.45,2.45,0,0,0,683.6,447.75Z" transform="translate(-9.32 -17.74)"/><path class="cls-2" d="M683.35,452.07a2.12,2.12,0,0,0-1.2-.58,3.88,3.88,0,0,0-1.25.1A2.45,2.45,0,0,0,683.35,452.07Z" transform="translate(-9.32 -17.74)"/><path class="cls-2" d="M680.52,454.38a2.2,2.2,0,0,0-.91-1,4.2,4.2,0,0,0-1.21-.35A2.44,2.44,0,0,0,680.52,454.38Z" transform="translate(-9.32 -17.74)"/><path class="cls-2" d="M679,447.38a2.14,2.14,0,0,0-1.18.61,4.06,4.06,0,0,0-.67,1.07A2.47,2.47,0,0,0,679,447.38Z" transform="translate(-9.32 -17.74)"/><path class="cls-2" d="M667.05,446.42a2.13,2.13,0,0,0,1,.94,4,4,0,0,0,1.22.3A2.45,2.45,0,0,0,667.05,446.42Z" transform="translate(-9.32 -17.74)"/><path class="cls-2" d="M677.48,442.93a2.15,2.15,0,0,0-.74,1.11,4.11,4.11,0,0,0-.08,1.25A2.46,2.46,0,0,0,677.48,442.93Z" transform="translate(-9.32 -17.74)"/><path class="cls-2" d="M675.24,440.84a2.18,2.18,0,0,0-.17,1.32,4.25,4.25,0,0,0,.48,1.16A2.43,2.43,0,0,0,675.24,440.84Z" transform="translate(-9.32 -17.74)"/><path class="cls-2" d="M670.41,441.54a2.18,2.18,0,0,0,.44,1.26,4.13,4.13,0,0,0,1,.81A2.44,2.44,0,0,0,670.41,441.54Z" transform="translate(-9.32 -17.74)"/><path class="cls-2" d="M703.66,446.54a2.11,2.11,0,0,0,.17,1.32,4.1,4.1,0,0,0,.76,1A2.43,2.43,0,0,0,703.66,446.54Z" transform="translate(-9.32 -17.74)"/><path class="cls-2" d="M697.61,452.92a2.09,2.09,0,0,0,1.23.49,4,4,0,0,0,1.25-.19A2.46,2.46,0,0,0,697.61,452.92Z" transform="translate(-9.32 -17.74)"/><path class="cls-2" d="M699.09,447.29a2.15,2.15,0,0,0,.72,1.12,4.16,4.16,0,0,0,1.12.57A2.46,2.46,0,0,0,699.09,447.29Z" transform="translate(-9.32 -17.74)"/><path class="cls-2" d="M711.13,446.76a2.14,2.14,0,0,0-1.18.61,4.06,4.06,0,0,0-.67,1.07A2.47,2.47,0,0,0,711.13,446.76Z" transform="translate(-9.32 -17.74)"/><path class="cls-2" d="M713.67,450.56a2.11,2.11,0,0,0-1.32.17,4.1,4.1,0,0,0-1,.76A2.46,2.46,0,0,0,713.67,450.56Z" transform="translate(-9.32 -17.74)"/><path class="cls-2" d="M713.42,454.87a2.14,2.14,0,0,0-1.2-.57,3.88,3.88,0,0,0-1.25.1A2.43,2.43,0,0,0,713.42,454.87Z" transform="translate(-9.32 -17.74)"/><path class="cls-2" d="M709.1,450.18a2.19,2.19,0,0,0-1.18.62,4.1,4.1,0,0,0-.67,1.06A2.44,2.44,0,0,0,709.1,450.18Z" transform="translate(-9.32 -17.74)"/><path class="cls-2" d="M697.12,449.23a2.14,2.14,0,0,0,1,.93,4.18,4.18,0,0,0,1.22.31A2.45,2.45,0,0,0,697.12,449.23Z" transform="translate(-9.32 -17.74)"/><path class="cls-2" d="M707.55,445.74a2.15,2.15,0,0,0-.74,1.1,4.18,4.18,0,0,0-.08,1.26A2.46,2.46,0,0,0,707.55,445.74Z" transform="translate(-9.32 -17.74)"/><path class="cls-2" d="M705.32,443.65a2.15,2.15,0,0,0-.18,1.32,4.25,4.25,0,0,0,.48,1.16A2.44,2.44,0,0,0,705.32,443.65Z" transform="translate(-9.32 -17.74)"/><path class="cls-2" d="M700.48,444.35a2.18,2.18,0,0,0,.44,1.26,4.37,4.37,0,0,0,1,.81A2.46,2.46,0,0,0,700.48,444.35Z" transform="translate(-9.32 -17.74)"/><polygon class="cls-12" points="630.77 437.79 633.54 437.79 632.32 431.57 638.07 427.06 631.54 430.17 629.68 421.31 631.23 437.48 627.19 435.92 619.58 432.97 627.97 437.63 630.77 437.79"/><polygon class="cls-12" points="665.12 429.39 661.39 437.48 662.95 437.63 663.88 435.3 668.04 434.55 664.19 433.75 665.12 429.39"/><polygon class="cls-12" points="692.64 433.28 694.81 437.63 695.19 435.28 692.64 433.28"/><polygon class="cls-12" points="696.69 437.79 697.01 434.62 699.79 432.5 697.17 432.96 697.61 428.46 694.81 437.63 695.75 437.79 696.69 437.79"/><path class="cls-6" d="M46.1,455.52c.44-3.69,3.3-11,7.41-13,4.35-2.18,7.61,2.79,15.39,6.37s5.75-2.64,13.83-7.46,9.17,1.86,12.44,3.42,5.37-4.31,6.16-6.5c1.56-4.29,3.37-8,7.4-10.51,6.23-3.93,16.87-3.62,20.16,4,1,2.29.64,6.49,3.12,7.73,3.73,1.87,13.37-.31,14,5.91a9.22,9.22,0,0,1-1.37,5.65,4.47,4.47,0,0,0-.34,2.12c.31.93,2.33-1.24,4-.15a7.64,7.64,0,0,1,2.3,2.48Z" transform="translate(-9.32 -17.74)"/><path class="cls-2" d="M119.32,434.05a3.68,3.68,0,0,1-.29,2.27,7.24,7.24,0,0,1-1.32,1.72S117.15,436.07,119.32,434.05Z" transform="translate(-9.32 -17.74)"/><path class="cls-2" d="M129.74,445a3.73,3.73,0,0,1-2.13.84,7.21,7.21,0,0,1-2.14-.32S126.92,444.11,129.74,445Z" transform="translate(-9.32 -17.74)"/><path class="cls-2" d="M139.92,443.62a3.71,3.71,0,0,1-2.13.85,7,7,0,0,1-2.14-.33S137.1,442.71,139.92,443.62Z" transform="translate(-9.32 -17.74)"/><path class="cls-2" d="M131.2,450.18a3.66,3.66,0,0,1-2.28.18,7,7,0,0,1-1.95-.95S128.78,448.47,131.2,450.18Z" transform="translate(-9.32 -17.74)"/><path class="cls-2" d="M141.54,448.87a3.74,3.74,0,0,1-2.29.17,7,7,0,0,1-1.95-.94S139.11,447.16,141.54,448.87Z" transform="translate(-9.32 -17.74)"/><path class="cls-2" d="M124.25,450.72a3.74,3.74,0,0,1-2.15-.79,7.2,7.2,0,0,1-1.38-1.68S122.76,448.15,124.25,450.72Z" transform="translate(-9.32 -17.74)"/><path class="cls-2" d="M138.71,454.4a3.74,3.74,0,0,1-2.15-.79,7.27,7.27,0,0,1-1.38-1.67S137.22,451.84,138.71,454.4Z" transform="translate(-9.32 -17.74)"/><path class="cls-2" d="M127.18,435.33a3.64,3.64,0,0,1-1.23,1.93,7,7,0,0,1-1.93,1S124.36,436.24,127.18,435.33Z" transform="translate(-9.32 -17.74)"/><path class="cls-2" d="M106.44,434.41a3.75,3.75,0,0,1,2,1.06,7.12,7.12,0,0,1,1.15,1.84S107.6,437.15,106.44,434.41Z" transform="translate(-9.32 -17.74)"/><path class="cls-2" d="M102.08,441a3.68,3.68,0,0,1,2.27.29,7,7,0,0,1,1.72,1.32S104.11,443.12,102.08,441Z" transform="translate(-9.32 -17.74)"/><path class="cls-2" d="M102.51,448.39a3.67,3.67,0,0,1,2.06-1,6.91,6.91,0,0,1,2.16.17S105.39,449.1,102.51,448.39Z" transform="translate(-9.32 -17.74)"/><path class="cls-2" d="M107.38,452.38a3.66,3.66,0,0,1,1.57-1.66,6.92,6.92,0,0,1,2.08-.61S110.32,452,107.38,452.38Z" transform="translate(-9.32 -17.74)"/><path class="cls-2" d="M109.94,440.32a3.75,3.75,0,0,1,2,1.06,7.16,7.16,0,0,1,1.15,1.83S111.1,443.05,109.94,440.32Z" transform="translate(-9.32 -17.74)"/><path class="cls-2" d="M130.58,438.68a3.69,3.69,0,0,1-1.64,1.6,6.9,6.9,0,0,1-2.1.53S127.62,438.93,130.58,438.68Z" transform="translate(-9.32 -17.74)"/><path class="cls-2" d="M112.62,432.66a3.67,3.67,0,0,1,1.27,1.9,7.18,7.18,0,0,1,.14,2.17S112.32,435.61,112.62,432.66Z" transform="translate(-9.32 -17.74)"/><path class="cls-2" d="M116.46,429.06a3.72,3.72,0,0,1,.31,2.27,7.23,7.23,0,0,1-.84,2S114.89,431.58,116.46,429.06Z" transform="translate(-9.32 -17.74)"/><path class="cls-2" d="M124.79,430.27a3.72,3.72,0,0,1-.76,2.16,7.22,7.22,0,0,1-1.66,1.4S122.24,431.8,124.79,430.27Z" transform="translate(-9.32 -17.74)"/><path class="cls-2" d="M88.4,443.73a2.15,2.15,0,0,1-.16,1.32,4.28,4.28,0,0,1-.77,1A2.46,2.46,0,0,1,88.4,443.73Z" transform="translate(-9.32 -17.74)"/><path class="cls-2" d="M94.46,450.11a2.13,2.13,0,0,1-1.24.49,3.93,3.93,0,0,1-1.24-.19A2.45,2.45,0,0,1,94.46,450.11Z" transform="translate(-9.32 -17.74)"/><path class="cls-2" d="M95.31,453.1a2.19,2.19,0,0,1-1.33.11,4.25,4.25,0,0,1-1.13-.55A2.44,2.44,0,0,1,95.31,453.1Z" transform="translate(-9.32 -17.74)"/><path class="cls-2" d="M91.27,453.42A2.16,2.16,0,0,1,90,453a4.09,4.09,0,0,1-.8-1A2.47,2.47,0,0,1,91.27,453.42Z" transform="translate(-9.32 -17.74)"/><path class="cls-2" d="M93,444.48a2.18,2.18,0,0,1-.71,1.12,4,4,0,0,1-1.12.58A2.44,2.44,0,0,1,93,444.48Z" transform="translate(-9.32 -17.74)"/><path class="cls-2" d="M80.93,444a2.14,2.14,0,0,1,1.18.61,4.06,4.06,0,0,1,.67,1.07A2.47,2.47,0,0,1,80.93,444Z" transform="translate(-9.32 -17.74)"/><path class="cls-2" d="M78.4,447.75a2.11,2.11,0,0,1,1.32.17,4.06,4.06,0,0,1,1,.77A2.44,2.44,0,0,1,78.4,447.75Z" transform="translate(-9.32 -17.74)"/><path class="cls-2" d="M78.64,452.07a2.12,2.12,0,0,1,1.2-.58,4,4,0,0,1,1.26.1A2.46,2.46,0,0,1,78.64,452.07Z" transform="translate(-9.32 -17.74)"/><path class="cls-2" d="M81.47,454.38a2.19,2.19,0,0,1,.92-1,4.09,4.09,0,0,1,1.2-.35A2.44,2.44,0,0,1,81.47,454.38Z" transform="translate(-9.32 -17.74)"/><path class="cls-2" d="M83,447.38a2.14,2.14,0,0,1,1.18.61,4.06,4.06,0,0,1,.67,1.07A2.47,2.47,0,0,1,83,447.38Z" transform="translate(-9.32 -17.74)"/><path class="cls-2" d="M94.94,446.42a2.13,2.13,0,0,1-1,.94,3.91,3.91,0,0,1-1.22.3A2.47,2.47,0,0,1,94.94,446.42Z" transform="translate(-9.32 -17.74)"/><path class="cls-2" d="M84.51,442.93a2.14,2.14,0,0,1,.75,1.11,3.92,3.92,0,0,1,.07,1.25A2.46,2.46,0,0,1,84.51,442.93Z" transform="translate(-9.32 -17.74)"/><path class="cls-2" d="M86.75,440.84a2.18,2.18,0,0,1,.17,1.32,4.25,4.25,0,0,1-.48,1.16A2.46,2.46,0,0,1,86.75,440.84Z" transform="translate(-9.32 -17.74)"/><path class="cls-2" d="M91.58,441.54a2.18,2.18,0,0,1-.44,1.26,3.91,3.91,0,0,1-1,.81A2.44,2.44,0,0,1,91.58,441.54Z" transform="translate(-9.32 -17.74)"/><path class="cls-2" d="M58.33,446.54a2.15,2.15,0,0,1-.16,1.32,4.28,4.28,0,0,1-.77,1A2.46,2.46,0,0,1,58.33,446.54Z" transform="translate(-9.32 -17.74)"/><path class="cls-2" d="M64.39,452.92a2.13,2.13,0,0,1-1.24.49,3.93,3.93,0,0,1-1.24-.19A2.45,2.45,0,0,1,64.39,452.92Z" transform="translate(-9.32 -17.74)"/><path class="cls-2" d="M62.9,447.29a2.15,2.15,0,0,1-.72,1.12,4,4,0,0,1-1.11.57A2.43,2.43,0,0,1,62.9,447.29Z" transform="translate(-9.32 -17.74)"/><path class="cls-2" d="M50.86,446.76a2.14,2.14,0,0,1,1.18.61,4.06,4.06,0,0,1,.67,1.07A2.47,2.47,0,0,1,50.86,446.76Z" transform="translate(-9.32 -17.74)"/><path class="cls-2" d="M48.32,450.56a2.14,2.14,0,0,1,1.33.17,4.17,4.17,0,0,1,1,.76A2.46,2.46,0,0,1,48.32,450.56Z" transform="translate(-9.32 -17.74)"/><path class="cls-2" d="M48.57,454.87a2.14,2.14,0,0,1,1.2-.57,4,4,0,0,1,1.26.1A2.46,2.46,0,0,1,48.57,454.87Z" transform="translate(-9.32 -17.74)"/><path class="cls-2" d="M52.89,450.18a2.19,2.19,0,0,1,1.18.62,4.1,4.1,0,0,1,.67,1.06A2.44,2.44,0,0,1,52.89,450.18Z" transform="translate(-9.32 -17.74)"/><path class="cls-2" d="M64.87,449.23a2.08,2.08,0,0,1-1,.93,4.11,4.11,0,0,1-1.22.31A2.47,2.47,0,0,1,64.87,449.23Z" transform="translate(-9.32 -17.74)"/><path class="cls-2" d="M54.44,445.74a2.09,2.09,0,0,1,.74,1.1,4.18,4.18,0,0,1,.08,1.26A2.46,2.46,0,0,1,54.44,445.74Z" transform="translate(-9.32 -17.74)"/><path class="cls-2" d="M56.68,443.65a2.18,2.18,0,0,1,.17,1.32,4.25,4.25,0,0,1-.48,1.16A2.43,2.43,0,0,1,56.68,443.65Z" transform="translate(-9.32 -17.74)"/><path class="cls-2" d="M61.51,444.35a2.18,2.18,0,0,1-.44,1.26,4.45,4.45,0,0,1-1,.81A2.44,2.44,0,0,1,61.51,444.35Z" transform="translate(-9.32 -17.74)"/><polygon class="cls-12" points="112.58 437.79 109.82 437.79 111.03 431.57 105.28 427.06 111.81 430.17 113.67 421.31 112.12 437.48 116.16 435.92 123.78 432.97 115.38 437.63 112.58 437.79"/><polygon class="cls-12" points="78.23 429.39 81.96 437.48 80.41 437.63 79.47 435.3 75.32 434.55 79.16 433.75 78.23 429.39"/><polygon class="cls-12" points="50.72 433.28 48.54 437.63 48.16 435.28 50.72 433.28"/><polygon class="cls-12" points="46.66 437.79 46.35 434.62 43.56 432.5 46.18 432.96 45.74 428.46 48.54 437.63 47.61 437.79 46.66 437.79"/><path class="cls-6" d="M158,455.52c.36-3,2.69-9,6-10.64,3.55-1.78,6.21,2.28,12.55,5.19s4.69-2.15,11.28-6.08,7.48,1.52,10.14,2.79,4.38-3.51,5-5.3c1.27-3.5,2.75-6.49,6-8.57,5.08-3.21,13.76-3,16.44,3.26.81,1.86.52,5.29,2.54,6.3,3,1.52,10.91-.26,11.41,4.81a7.55,7.55,0,0,1-1.11,4.62,3.43,3.43,0,0,0-.28,1.72c.25.76,1.9-1,3.29-.12a6.19,6.19,0,0,1,1.88,2Z" transform="translate(-9.32 -17.74)"/><path class="cls-2" d="M217.71,438a3.07,3.07,0,0,1-.24,1.85,5.85,5.85,0,0,1-1.08,1.41A3.44,3.44,0,0,1,217.71,438Z" transform="translate(-9.32 -17.74)"/><path class="cls-2" d="M226.21,447a3.08,3.08,0,0,1-1.74.69,6,6,0,0,1-1.75-.27A3.44,3.44,0,0,1,226.21,447Z" transform="translate(-9.32 -17.74)"/><path class="cls-2" d="M234.51,445.82a3.08,3.08,0,0,1-1.74.69,5.65,5.65,0,0,1-1.75-.27A3.46,3.46,0,0,1,234.51,445.82Z" transform="translate(-9.32 -17.74)"/><path class="cls-2" d="M227.4,451.17a3,3,0,0,1-1.87.14,6.08,6.08,0,0,1-1.59-.77A3.44,3.44,0,0,1,227.4,451.17Z" transform="translate(-9.32 -17.74)"/><path class="cls-2" d="M235.82,450.1a3,3,0,0,1-1.86.14,5.89,5.89,0,0,1-1.59-.77A3.42,3.42,0,0,1,235.82,450.1Z" transform="translate(-9.32 -17.74)"/><path class="cls-2" d="M221.73,451.61A3.08,3.08,0,0,1,220,451a5.93,5.93,0,0,1-1.12-1.36A3.42,3.42,0,0,1,221.73,451.61Z" transform="translate(-9.32 -17.74)"/><path class="cls-2" d="M233.52,454.61a3,3,0,0,1-1.75-.65,5.83,5.83,0,0,1-1.13-1.36A3.45,3.45,0,0,1,233.52,454.61Z" transform="translate(-9.32 -17.74)"/><path class="cls-2" d="M224.12,439.06a3,3,0,0,1-1,1.57,5.72,5.72,0,0,1-1.57.81A3.45,3.45,0,0,1,224.12,439.06Z" transform="translate(-9.32 -17.74)"/><path class="cls-2" d="M207.21,438.31a3,3,0,0,1,1.66.86,5.83,5.83,0,0,1,.94,1.5A3.44,3.44,0,0,1,207.21,438.31Z" transform="translate(-9.32 -17.74)"/><path class="cls-2" d="M203.65,443.65a3,3,0,0,1,1.85.23,5.66,5.66,0,0,1,1.4,1.08A3.44,3.44,0,0,1,203.65,443.65Z" transform="translate(-9.32 -17.74)"/><path class="cls-2" d="M204,449.71a3,3,0,0,1,1.68-.81,5.62,5.62,0,0,1,1.76.14A3.42,3.42,0,0,1,204,449.71Z" transform="translate(-9.32 -17.74)"/><path class="cls-2" d="M208,453a3,3,0,0,1,1.28-1.36,5.75,5.75,0,0,1,1.7-.49A3.43,3.43,0,0,1,208,453Z" transform="translate(-9.32 -17.74)"/><path class="cls-2" d="M210.06,443.13a3,3,0,0,1,1.66.86,5.87,5.87,0,0,1,.94,1.49A3.44,3.44,0,0,1,210.06,443.13Z" transform="translate(-9.32 -17.74)"/><path class="cls-2" d="M226.89,441.79a3.05,3.05,0,0,1-1.34,1.31,6.07,6.07,0,0,1-1.71.43A3.44,3.44,0,0,1,226.89,441.79Z" transform="translate(-9.32 -17.74)"/><path class="cls-2" d="M212.24,436.88a3,3,0,0,1,1,1.55,5.85,5.85,0,0,1,.11,1.77A3.45,3.45,0,0,1,212.24,436.88Z" transform="translate(-9.32 -17.74)"/><path class="cls-2" d="M215.38,434a3,3,0,0,1,.25,1.85,6,6,0,0,1-.68,1.63A3.43,3.43,0,0,1,215.38,434Z" transform="translate(-9.32 -17.74)"/><path class="cls-2" d="M222.17,434.93a3,3,0,0,1-.63,1.77,6,6,0,0,1-1.34,1.14A3.43,3.43,0,0,1,222.17,434.93Z" transform="translate(-9.32 -17.74)"/><path class="cls-2" d="M192.5,445.91a1.73,1.73,0,0,1-.14,1.08,3.21,3.21,0,0,1-.62.81A2,2,0,0,1,192.5,445.91Z" transform="translate(-9.32 -17.74)"/><path class="cls-2" d="M197.43,451.11a1.7,1.7,0,0,1-1,.4,3.27,3.27,0,0,1-1-.15A2,2,0,0,1,197.43,451.11Z" transform="translate(-9.32 -17.74)"/><path class="cls-2" d="M198.13,453.55a1.8,1.8,0,0,1-1.09.08,3.32,3.32,0,0,1-.92-.45A2,2,0,0,1,198.13,453.55Z" transform="translate(-9.32 -17.74)"/><path class="cls-2" d="M194.83,453.8a1.68,1.68,0,0,1-1-.37,3.5,3.5,0,0,1-.66-.79A2,2,0,0,1,194.83,453.8Z" transform="translate(-9.32 -17.74)"/><path class="cls-2" d="M196.22,446.52a1.68,1.68,0,0,1-.58.91,3.4,3.4,0,0,1-.91.47A2,2,0,0,1,196.22,446.52Z" transform="translate(-9.32 -17.74)"/><path class="cls-2" d="M186.4,446.08a1.8,1.8,0,0,1,1,.51,3.35,3.35,0,0,1,.54.86A2,2,0,0,1,186.4,446.08Z" transform="translate(-9.32 -17.74)"/><path class="cls-2" d="M184.34,449.18a1.78,1.78,0,0,1,1.07.14,3.56,3.56,0,0,1,.82.63A2,2,0,0,1,184.34,449.18Z" transform="translate(-9.32 -17.74)"/><path class="cls-2" d="M184.54,452.7a1.78,1.78,0,0,1,1-.47,3.56,3.56,0,0,1,1,.08A2,2,0,0,1,184.54,452.7Z" transform="translate(-9.32 -17.74)"/><path class="cls-2" d="M186.85,454.59a1.74,1.74,0,0,1,.74-.79,3.15,3.15,0,0,1,1-.28A2,2,0,0,1,186.85,454.59Z" transform="translate(-9.32 -17.74)"/><path class="cls-2" d="M188.06,448.88a1.7,1.7,0,0,1,1,.5,3.37,3.37,0,0,1,.55.87A2,2,0,0,1,188.06,448.88Z" transform="translate(-9.32 -17.74)"/><path class="cls-2" d="M197.83,448.1a1.73,1.73,0,0,1-.77.76,3.41,3.41,0,0,1-1,.25A2,2,0,0,1,197.83,448.1Z" transform="translate(-9.32 -17.74)"/><path class="cls-2" d="M189.33,445.25a1.75,1.75,0,0,1,.6.91,3.34,3.34,0,0,1,.06,1A2,2,0,0,1,189.33,445.25Z" transform="translate(-9.32 -17.74)"/><path class="cls-2" d="M191.15,443.55a1.79,1.79,0,0,1,.14,1.08,3.35,3.35,0,0,1-.39.94A2,2,0,0,1,191.15,443.55Z" transform="translate(-9.32 -17.74)"/><path class="cls-2" d="M195.09,444.12a1.77,1.77,0,0,1-.36,1,3.27,3.27,0,0,1-.79.66A2,2,0,0,1,195.09,444.12Z" transform="translate(-9.32 -17.74)"/><path class="cls-2" d="M168,448.2a1.73,1.73,0,0,1-.14,1.08,3.21,3.21,0,0,1-.62.81A2,2,0,0,1,168,448.2Z" transform="translate(-9.32 -17.74)"/><path class="cls-2" d="M172.91,453.4a1.7,1.7,0,0,1-1,.4,3.27,3.27,0,0,1-1-.15A2,2,0,0,1,172.91,453.4Z" transform="translate(-9.32 -17.74)"/><path class="cls-2" d="M171.7,448.81a1.68,1.68,0,0,1-.58.91,3.4,3.4,0,0,1-.91.47A2,2,0,0,1,171.7,448.81Z" transform="translate(-9.32 -17.74)"/><path class="cls-2" d="M161.88,448.37a1.8,1.8,0,0,1,1,.51,3.35,3.35,0,0,1,.54.86A2,2,0,0,1,161.88,448.37Z" transform="translate(-9.32 -17.74)"/><path class="cls-2" d="M159.82,451.47a1.78,1.78,0,0,1,1.07.14,3.56,3.56,0,0,1,.82.63A2,2,0,0,1,159.82,451.47Z" transform="translate(-9.32 -17.74)"/><path class="cls-2" d="M160,455a1.78,1.78,0,0,1,1-.47,3.56,3.56,0,0,1,1,.08A2,2,0,0,1,160,455Z" transform="translate(-9.32 -17.74)"/><path class="cls-2" d="M163.54,451.17a1.7,1.7,0,0,1,1,.5,3.37,3.37,0,0,1,.55.87A2,2,0,0,1,163.54,451.17Z" transform="translate(-9.32 -17.74)"/><path class="cls-2" d="M173.31,450.39a1.73,1.73,0,0,1-.77.76,3.41,3.41,0,0,1-1,.25A2,2,0,0,1,173.31,450.39Z" transform="translate(-9.32 -17.74)"/><path class="cls-2" d="M164.81,447.54a1.75,1.75,0,0,1,.6.91,3.34,3.34,0,0,1,.06,1A2,2,0,0,1,164.81,447.54Z" transform="translate(-9.32 -17.74)"/><path class="cls-2" d="M166.63,445.84a1.79,1.79,0,0,1,.14,1.08,3.35,3.35,0,0,1-.39.94A2,2,0,0,1,166.63,445.84Z" transform="translate(-9.32 -17.74)"/><path class="cls-2" d="M170.57,446.41a1.77,1.77,0,0,1-.36,1,3.34,3.34,0,0,1-.78.66A2,2,0,0,1,170.57,446.41Z" transform="translate(-9.32 -17.74)"/><polygon class="cls-12" points="210.5 437.79 208.24 437.79 209.23 432.72 204.54 429.04 209.86 431.58 211.38 424.35 210.12 437.53 213.41 436.27 219.62 433.86 212.78 437.66 210.5 437.79"/><polygon class="cls-12" points="182.48 430.94 185.52 437.53 184.26 437.66 183.5 435.76 180.11 435.15 183.24 434.49 182.48 430.94"/><polygon class="cls-12" points="160.05 434.11 158.27 437.66 157.96 435.74 160.05 434.11"/><polygon class="cls-12" points="156.74 437.79 156.48 435.21 154.22 433.48 156.35 433.86 155.99 430.18 158.27 437.66 157.51 437.79 156.74 437.79"/><path class="cls-6" d="M515.23,455.52c.36-3,2.69-9,6-10.64,3.55-1.78,6.21,2.28,12.55,5.19s4.69-2.15,11.28-6.08,7.48,1.52,10.14,2.79,4.38-3.51,5-5.3c1.27-3.5,2.74-6.49,6-8.57,5.08-3.21,13.76-3,16.44,3.26.81,1.86.52,5.29,2.54,6.3,3.05,1.52,10.9-.26,11.41,4.81a7.49,7.49,0,0,1-1.12,4.62,3.51,3.51,0,0,0-.27,1.72c.25.76,1.9-1,3.29-.12a6.19,6.19,0,0,1,1.88,2Z" transform="translate(-9.32 -17.74)"/><path class="cls-2" d="M574.93,438a3,3,0,0,1-.23,1.85,5.85,5.85,0,0,1-1.08,1.41A3.45,3.45,0,0,1,574.93,438Z" transform="translate(-9.32 -17.74)"/><path class="cls-2" d="M583.43,447a3,3,0,0,1-1.74.69,6,6,0,0,1-1.74-.27A3.42,3.42,0,0,1,583.43,447Z" transform="translate(-9.32 -17.74)"/><path class="cls-2" d="M591.73,445.82a3,3,0,0,1-1.73.69,5.65,5.65,0,0,1-1.75-.27A3.45,3.45,0,0,1,591.73,445.82Z" transform="translate(-9.32 -17.74)"/><path class="cls-2" d="M584.62,451.17a3,3,0,0,1-1.86.14,5.89,5.89,0,0,1-1.59-.77A3.42,3.42,0,0,1,584.62,451.17Z" transform="translate(-9.32 -17.74)"/><path class="cls-2" d="M593.05,450.1a3,3,0,0,1-1.86.14,5.89,5.89,0,0,1-1.59-.77A3.42,3.42,0,0,1,593.05,450.1Z" transform="translate(-9.32 -17.74)"/><path class="cls-2" d="M579,451.61a3.08,3.08,0,0,1-1.76-.65,5.63,5.63,0,0,1-1.12-1.36A3.42,3.42,0,0,1,579,451.61Z" transform="translate(-9.32 -17.74)"/><path class="cls-2" d="M590.75,454.61A3.08,3.08,0,0,1,589,454a5.93,5.93,0,0,1-1.12-1.36A3.45,3.45,0,0,1,590.75,454.61Z" transform="translate(-9.32 -17.74)"/><path class="cls-2" d="M581.35,439.06a3,3,0,0,1-1,1.57,5.72,5.72,0,0,1-1.57.81A3.42,3.42,0,0,1,581.35,439.06Z" transform="translate(-9.32 -17.74)"/><path class="cls-2" d="M564.44,438.31a3,3,0,0,1,1.66.86,5.83,5.83,0,0,1,.94,1.5A3.44,3.44,0,0,1,564.44,438.31Z" transform="translate(-9.32 -17.74)"/><path class="cls-2" d="M560.88,443.65a3,3,0,0,1,1.85.23,5.91,5.91,0,0,1,1.4,1.08A3.44,3.44,0,0,1,560.88,443.65Z" transform="translate(-9.32 -17.74)"/><path class="cls-2" d="M561.23,449.71a3,3,0,0,1,1.68-.81,5.67,5.67,0,0,1,1.76.14A3.44,3.44,0,0,1,561.23,449.71Z" transform="translate(-9.32 -17.74)"/><path class="cls-2" d="M565.2,453a3,3,0,0,1,1.28-1.36,5.75,5.75,0,0,1,1.7-.49A3.43,3.43,0,0,1,565.2,453Z" transform="translate(-9.32 -17.74)"/><path class="cls-2" d="M567.29,443.13A3,3,0,0,1,569,444a5.87,5.87,0,0,1,.94,1.49A3.44,3.44,0,0,1,567.29,443.13Z" transform="translate(-9.32 -17.74)"/><path class="cls-2" d="M584.12,441.79a3.05,3.05,0,0,1-1.34,1.31,6.07,6.07,0,0,1-1.71.43A3.42,3.42,0,0,1,584.12,441.79Z" transform="translate(-9.32 -17.74)"/><path class="cls-2" d="M569.47,436.88a3,3,0,0,1,1,1.55,5.85,5.85,0,0,1,.11,1.77A3.45,3.45,0,0,1,569.47,436.88Z" transform="translate(-9.32 -17.74)"/><path class="cls-2" d="M572.61,434a3,3,0,0,1,.24,1.85,5.67,5.67,0,0,1-.68,1.63A3.45,3.45,0,0,1,572.61,434Z" transform="translate(-9.32 -17.74)"/><path class="cls-2" d="M579.39,434.93a3.06,3.06,0,0,1-.62,1.77,5.87,5.87,0,0,1-1.35,1.14A3.46,3.46,0,0,1,579.39,434.93Z" transform="translate(-9.32 -17.74)"/><path class="cls-2" d="M549.73,445.91a1.82,1.82,0,0,1-.14,1.08,3.11,3.11,0,0,1-.63.81A2,2,0,0,1,549.73,445.91Z" transform="translate(-9.32 -17.74)"/><path class="cls-2" d="M554.66,451.11a1.71,1.71,0,0,1-1,.4,3.25,3.25,0,0,1-1-.15A2,2,0,0,1,554.66,451.11Z" transform="translate(-9.32 -17.74)"/><path class="cls-2" d="M555.35,453.55a1.76,1.76,0,0,1-1.08.08,3.32,3.32,0,0,1-.92-.45A2,2,0,0,1,555.35,453.55Z" transform="translate(-9.32 -17.74)"/><path class="cls-2" d="M552.06,453.8a1.72,1.72,0,0,1-1-.37,3.61,3.61,0,0,1-.65-.79A2,2,0,0,1,552.06,453.8Z" transform="translate(-9.32 -17.74)"/><path class="cls-2" d="M553.45,446.52a1.76,1.76,0,0,1-.58.91,3.38,3.38,0,0,1-.92.47A2,2,0,0,1,553.45,446.52Z" transform="translate(-9.32 -17.74)"/><path class="cls-2" d="M543.63,446.08a1.75,1.75,0,0,1,1,.51,3.24,3.24,0,0,1,.55.86A2,2,0,0,1,543.63,446.08Z" transform="translate(-9.32 -17.74)"/><path class="cls-2" d="M541.56,449.18a1.82,1.82,0,0,1,1.08.14,3.37,3.37,0,0,1,.81.63A2,2,0,0,1,541.56,449.18Z" transform="translate(-9.32 -17.74)"/><path class="cls-2" d="M541.77,452.7a1.78,1.78,0,0,1,1-.47,3.56,3.56,0,0,1,1,.08A2,2,0,0,1,541.77,452.7Z" transform="translate(-9.32 -17.74)"/><path class="cls-2" d="M544.07,454.59a1.8,1.8,0,0,1,.75-.79,3.13,3.13,0,0,1,1-.28A2,2,0,0,1,544.07,454.59Z" transform="translate(-9.32 -17.74)"/><path class="cls-2" d="M545.29,448.88a1.73,1.73,0,0,1,1,.5,3.37,3.37,0,0,1,.55.87A2,2,0,0,1,545.29,448.88Z" transform="translate(-9.32 -17.74)"/><path class="cls-2" d="M555.06,448.1a1.79,1.79,0,0,1-.78.76,3.32,3.32,0,0,1-1,.25A2,2,0,0,1,555.06,448.1Z" transform="translate(-9.32 -17.74)"/><path class="cls-2" d="M546.55,445.25a1.74,1.74,0,0,1,.61.91,3.34,3.34,0,0,1,.06,1A2,2,0,0,1,546.55,445.25Z" transform="translate(-9.32 -17.74)"/><path class="cls-2" d="M548.38,443.55a1.79,1.79,0,0,1,.14,1.08,3.2,3.2,0,0,1-.4.94A2,2,0,0,1,548.38,443.55Z" transform="translate(-9.32 -17.74)"/><path class="cls-2" d="M552.32,444.12a1.77,1.77,0,0,1-.36,1,3.5,3.5,0,0,1-.79.66A2,2,0,0,1,552.32,444.12Z" transform="translate(-9.32 -17.74)"/><path class="cls-2" d="M525.21,448.2a1.82,1.82,0,0,1-.14,1.08,3.11,3.11,0,0,1-.63.81A2,2,0,0,1,525.21,448.2Z" transform="translate(-9.32 -17.74)"/><path class="cls-2" d="M530.14,453.4a1.71,1.71,0,0,1-1,.4,3.25,3.25,0,0,1-1-.15A2,2,0,0,1,530.14,453.4Z" transform="translate(-9.32 -17.74)"/><path class="cls-2" d="M528.93,448.81a1.76,1.76,0,0,1-.58.91,3.38,3.38,0,0,1-.92.47A2,2,0,0,1,528.93,448.81Z" transform="translate(-9.32 -17.74)"/><path class="cls-2" d="M519.11,448.37a1.75,1.75,0,0,1,1,.51,3.24,3.24,0,0,1,.55.86A2,2,0,0,1,519.11,448.37Z" transform="translate(-9.32 -17.74)"/><path class="cls-2" d="M517,451.47a1.82,1.82,0,0,1,1.08.14,3.37,3.37,0,0,1,.81.63A2,2,0,0,1,517,451.47Z" transform="translate(-9.32 -17.74)"/><path class="cls-2" d="M517.25,455a1.78,1.78,0,0,1,1-.47,3.56,3.56,0,0,1,1,.08A2,2,0,0,1,517.25,455Z" transform="translate(-9.32 -17.74)"/><path class="cls-2" d="M520.77,451.17a1.73,1.73,0,0,1,1,.5,3.37,3.37,0,0,1,.55.87A2,2,0,0,1,520.77,451.17Z" transform="translate(-9.32 -17.74)"/><path class="cls-2" d="M530.54,450.39a1.79,1.79,0,0,1-.78.76,3.32,3.32,0,0,1-1,.25A2,2,0,0,1,530.54,450.39Z" transform="translate(-9.32 -17.74)"/><path class="cls-2" d="M522,447.54a1.74,1.74,0,0,1,.61.91,3.34,3.34,0,0,1,.06,1A2,2,0,0,1,522,447.54Z" transform="translate(-9.32 -17.74)"/><path class="cls-2" d="M523.86,445.84a1.79,1.79,0,0,1,.14,1.08,3.2,3.2,0,0,1-.4.94A2,2,0,0,1,523.86,445.84Z" transform="translate(-9.32 -17.74)"/><path class="cls-2" d="M527.8,446.41a1.77,1.77,0,0,1-.36,1,3.5,3.5,0,0,1-.79.66A2,2,0,0,1,527.8,446.41Z" transform="translate(-9.32 -17.74)"/><polygon class="cls-12" points="567.72 437.79 565.47 437.79 566.46 432.72 561.76 429.04 567.09 431.58 568.61 424.35 567.34 437.53 570.64 436.27 576.85 433.86 570 437.66 567.72 437.79"/><polygon class="cls-12" points="539.71 430.94 542.75 437.53 541.48 437.66 540.72 435.76 537.33 435.15 540.47 434.49 539.71 430.94"/><polygon class="cls-12" points="517.27 434.11 515.5 437.66 515.19 435.74 517.27 434.11"/><polygon class="cls-12" points="513.97 437.79 513.71 435.21 511.44 433.48 513.58 433.86 513.22 430.18 515.5 437.66 514.74 437.79 513.97 437.79"/><line class="cls-10" x1="1.38" y1="437.79" x2="730.24" y2="437.79"/><path d="M353.48,209.5a6.51,6.51,0,0,1-.18,1.11,4.36,4.36,0,0,1-.27,1l-.68.25-1.33.52-.95.38.36.4.72.77.73.8.56.65.21.3.2.35.4.77-.49,3.14h-6.48a1.81,1.81,0,0,1-1.08-.3,2.43,2.43,0,0,1-.78-1,5.41,5.41,0,0,1-.15-1.39v-.31l0-.65.05-.46,0-.25.09-.32a5.68,5.68,0,0,1,.33-1.08l.2-.45.07-.13.06-.12.08-.1.24,0-.15,1-.05.44v.79a1.71,1.71,0,0,0,.44.92,1.8,1.8,0,0,0,1,.39h4.88l-1.1-1.06-.62-.59-.11.17-.1.12,0,0-.55-.77a8.59,8.59,0,0,1-.67-1l.3-1.3a11.41,11.41,0,0,1,.45-1.54l1.2-.4,2-.63Z" transform="translate(-9.32 -17.74)"/><path d="M358.26,215.91a3.82,3.82,0,0,1-.06.76,2.34,2.34,0,0,1-.16.7,8.21,8.21,0,0,1-.65,1.44,2,2,0,0,1-.73.68,2.46,2.46,0,0,1-1.31.42H355l-.25,0a1,1,0,0,1-.33-.13c-.11,0-.28-.24-.51-.59l-.05-.21,0-.3a8.09,8.09,0,0,1,.5-2.13l.19-.49.23-.48.07-.17.12-.21.25-.41a2.35,2.35,0,0,1,.46-1.15,3.52,3.52,0,0,1,.71-.85l.45.57a4.89,4.89,0,0,1,.92,1A2.92,2.92,0,0,1,358.26,215.91Zm-1.35.89a1.8,1.8,0,0,0-.48-.76,3.74,3.74,0,0,0-.78-.58l-.17.19-.18.24a1.12,1.12,0,0,0-.21.55.59.59,0,0,0,.11.36.61.61,0,0,0,.3.2l.18,0h.19a2.92,2.92,0,0,0,.6-.08A1,1,0,0,0,356.91,216.8Z" transform="translate(-9.32 -17.74)"/><path d="M362.94,217.2l0,.41v.74l0,.16,0,.52a3,3,0,0,1-.49,1.39,6.93,6.93,0,0,1-1,1.61,1.72,1.72,0,0,1-1.2.78,3.24,3.24,0,0,1-1.55-.52,7.22,7.22,0,0,1-1.76-1.46l0-.07a.18.18,0,0,1,.12-.09l.39.19.4.13.43.07.47,0a2.87,2.87,0,0,0,1.68-.78,4.29,4.29,0,0,0,1.22-1.43l.06-.21,0-.21a.32.32,0,0,0,0-.15,3.22,3.22,0,0,0-.43-.81l-.41-.58-.49-.59.06-.24.09-.32.11-.33.13-.32a4.66,4.66,0,0,1,.37-.9,4.74,4.74,0,0,1,1,1.12A5,5,0,0,1,362.94,217.2Zm-4.48,6.49,1.76,2.23,1.63-2.32-1.1,0-.26.8-.27.79-.38-.8-.38-.79Z" transform="translate(-9.32 -17.74)"/><path d="M370.67,219.91h-1.5a.32.32,0,0,1-.17,0,.43.43,0,0,1-.13-.17l-.3-.8-.15-.51-.14-.62-.32.83-.25.63a.48.48,0,0,1-.18.2l-.13.06-.14,0-.1,0c-.66-.18-1.32-.34-2-.47l-.49-.06-.37,0c.1-.64.22-1.28.37-1.93a4.43,4.43,0,0,1,.54-1.44l.06-.08.43-.45.8-.64,1-.76-.09-.29-.1-.4c0-.05.19-.42.54-1.1a9.1,9.1,0,0,1,.44-.81l0,0,.06,0,0,.06.45,2.31.43,2.78a2.1,2.1,0,0,0,.12.42.31.31,0,0,0,.21.17h1Zm-2.6-3.3-.1-.76-.19-.85-.13.15-.18.27-.27.33-.39.31-.34.25.11.06.36.15.48.06Z" transform="translate(-9.32 -17.74)"/><path d="M375.57,209.48l0,.32-.09.5-.27,1.24a5.16,5.16,0,0,1-.91.38l-1.3.49-.86.33.94.93.76.81.64.75a8.26,8.26,0,0,1,1,1.49l-.21,1.26a5.58,5.58,0,0,1-.34,1.74l0,.05-.05.06-.17.08h-4.38v-3.06h3.37l-.72-.68-.26-.24-.38-.33-.43-.36-.08.13a1.4,1.4,0,0,1-.14.16l-.56-.77-.48-.65-.2-.34a6.41,6.41,0,0,1,.19-1.12l.24-.84a6.4,6.4,0,0,1,.3-.93l1.25-.41,1.88-.59Zm.43-2v.14a2,2,0,0,1-.13.66,1,1,0,0,1-.23.45l-2.25.7a20,20,0,0,0-2.19.72,2.15,2.15,0,0,1,.13-.55l.25-.72,1.24-.41,1.89-.59Z" transform="translate(-9.32 -17.74)"/><path d="M388.45,212.7l-.18,1.06-.17.77,0,.05-.1,0a1.8,1.8,0,0,0-.24-.6.54.54,0,0,0-.48-.26,1.92,1.92,0,0,0-1.34.73,1.88,1.88,0,0,0-.64,1.19.42.42,0,0,0,.06.21.7.7,0,0,0,.32.25l.74.14c.18,0,.42,0,.7.05a2.24,2.24,0,0,1,.55.11c.45.13.67.36.67.71v.34l0,0v.19l0,.24-.07.36-.14.49a5,5,0,0,1-.54,1.36,5.17,5.17,0,0,1-1.76,1.44,4.55,4.55,0,0,1-2.2.62,2.63,2.63,0,0,1-1-.16,2.07,2.07,0,0,1-1.22-1.27,6.72,6.72,0,0,1-.19-1.9,9.56,9.56,0,0,1,.23-2l0-.22.08-.33,0-.21.1-.29a4.79,4.79,0,0,1,.33-.83,1.64,1.64,0,0,1,.21.79,10.57,10.57,0,0,1-.3,1.23,3.44,3.44,0,0,0-.15.86v.19a1.5,1.5,0,0,0,.6,1,2,2,0,0,0,1.28.42,4.63,4.63,0,0,0,1-.06l.28,0,.21,0,.23,0,.26-.06a7.55,7.55,0,0,0,1.41-.55l0-.08s-.05-.09-.14-.19l-2-.18-.26-.08-.17-.09-.32-.43,0-.25a4.18,4.18,0,0,1,.13-1.07l.08-.41.11-.43a5.59,5.59,0,0,1,.27-.73,8.19,8.19,0,0,1,.91-1.67,4.27,4.27,0,0,1,.9-1,1.85,1.85,0,0,1,1.08-.47.7.7,0,0,1,.42.12A1,1,0,0,1,388.45,212.7Z" transform="translate(-9.32 -17.74)"/><path d="M393.05,217.2l0,.41v.9L393,219a3,3,0,0,1-.49,1.39,7.28,7.28,0,0,1-1,1.61,1.76,1.76,0,0,1-1.21.78,3.21,3.21,0,0,1-1.54-.52,7.22,7.22,0,0,1-1.76-1.46l0-.07a.19.19,0,0,1,.11-.09l.39.19.41.13.42.07.47,0a2.85,2.85,0,0,0,1.68-.78,4.29,4.29,0,0,0,1.22-1.43l.07-.21,0-.21a.42.42,0,0,0,0-.15,3.38,3.38,0,0,0-.44-.81l-.4-.58-.49-.59.06-.24.09-.32.11-.33.13-.32a4.29,4.29,0,0,1,.36-.9,4.3,4.3,0,0,1,1,1.12A4.67,4.67,0,0,1,393.05,217.2Z" transform="translate(-9.32 -17.74)"/><path d="M399.18,219.91h-3.87a.82.82,0,0,1-.27,0c-.05,0-.09-.07-.1-.17l0-1-.06-1.73,0-.48,0-.57v-.57a.88.88,0,0,0,0-.34l-.07-.88,0-.67v-.63l0-1a10,10,0,0,1,.64-1,8.51,8.51,0,0,1,.68-.9l.05.08.12.23,0,.25,0,.28v.82l.05,1.28.14,2v.76l.06,1.23h2.75Z" transform="translate(-9.32 -17.74)"/><path d="M403.64,210.7l-.56.69-.7.83-.56-.35a8,8,0,0,1-.94-.69l-.51.63-.36.41-.66-.41a6.63,6.63,0,0,1-1-.75,6.06,6.06,0,0,1,.67-.94l.61-.71a6.79,6.79,0,0,0,.88.79l.52.37.58-.71.4-.45a4.47,4.47,0,0,0,.95.85Zm.59,9.21h-2.35l-.19-.05a1,1,0,0,1-.3-.24l-.14-.17-.11-.22-.17-.41-.2.44-.35.66H398.8v-3.06h2l-.06-.27v-.44l0-1.06.61-.76a10.11,10.11,0,0,1,.82-.93l.13.28.09.35v2.36l0,.27a.27.27,0,0,0,.21.2h1.68Z" transform="translate(-9.32 -17.74)"/><path d="M411,214.41l-.62,2a2.81,2.81,0,0,0-1.23.24,4.39,4.39,0,0,0-1.07.75,7.78,7.78,0,0,0-1,1.2,10.25,10.25,0,0,1-.71,1.12l-.19.16-.08,0-.16,0h-2.16v-3.06h2.65a4.06,4.06,0,0,0,.56-.24,3.81,3.81,0,0,0,.51-.55l-.77-.18-.5-.07-.44,0a3,3,0,0,0-.68.08,1.11,1.11,0,0,0-.35.15l-.32.21-.13-.05a9.2,9.2,0,0,1,.07-1.12,3.06,3.06,0,0,1,.46-1.22,1.63,1.63,0,0,1,.62-.6,1.7,1.7,0,0,1,.87-.25h.21a.65.65,0,0,1,.23.06l1.47.74a5.31,5.31,0,0,0,1.07.43l.85.16.5,0Zm-1.91-3.63-.56.7-.69.83-.66-.42a5.89,5.89,0,0,1-1-.75,4.89,4.89,0,0,1,.66-.93l.62-.72a4.74,4.74,0,0,0,.95.85Z" transform="translate(-9.32 -17.74)"/><path d="M417.38,219.91h-1.71a5.68,5.68,0,0,1-.4,1.29,2.45,2.45,0,0,1-.2.48l-.14.24-.14.23-.07.09-.13.15a2.09,2.09,0,0,1-.3.28,1.18,1.18,0,0,1-.48.33l-.37,0a7,7,0,0,1-1.76-.25,4.62,4.62,0,0,1-1.45-.59l-.09-.18a10.6,10.6,0,0,0,1.14-.05,6.71,6.71,0,0,0,1.23-.35,4.38,4.38,0,0,0,1.15-.74l.3-.29.17-.21.21-.3.26-.39-.21.06-.39.08-.19,0a1.57,1.57,0,0,1-1.48-1l-.06-.28,0-.37a5.63,5.63,0,0,1,.19-1.39l.13-.51a4.27,4.27,0,0,1,.18-.54c.05-.17.21-.56.47-1.18a2.72,2.72,0,0,1,.49-.74,1.05,1.05,0,0,1,.74-.37.7.7,0,0,1,.59.31,7.31,7.31,0,0,1,.38.7,6.88,6.88,0,0,1,.37,1.19l.14.71a3.75,3.75,0,0,1,.05.52h1.4Zm-2.74-3.06a1,1,0,0,0-.15-.42,1.8,1.8,0,0,0-.24-.36l-.12-.09-.17-.11a.51.51,0,0,0-.28.15.56.56,0,0,0-.2.25c0,.09,0,.19.18.32a1.45,1.45,0,0,0,.45.25l.14,0h.15Z" transform="translate(-9.32 -17.74)"/><path d="M421.48,217.17a3.92,3.92,0,0,1-.16.56l-.1.31-.14.34a8.09,8.09,0,0,1-.6,1.33l-.31-.12-.19-.11-.52-.33-.44-.25-.27-.19-.74-.49-.33,1a5.61,5.61,0,0,1-.27.61.21.21,0,0,1-.11.1l-.17,0H417v-3.06h.44l.35-.93a7.16,7.16,0,0,1,.48-1,4.15,4.15,0,0,1,1.08-1.2,2,2,0,0,1,1.18-.47l.05,0,.14.08.14.25.39,1.6.24,1,0,.28,0,.25Zm-1.52-.84v-.11l0-.15a.33.33,0,0,0,0-.14l-.05-.16a.71.71,0,0,0-.2-.4.28.28,0,0,0-.16-.05.51.51,0,0,0-.3.1.66.66,0,0,0-.24.26l.58.39Z" transform="translate(-9.32 -17.74)"/></g></svg>